<svg width="130" height="29" viewBox="0 0 130 29" fill="none" xmlns="http://www.w3.org/2000/svg">
<g clip-path="url(#clip0_12_2)">
<path d="M73.9185 12.702C74.4088 12.0359 75.0244 11.4754 75.7298 11.0531C76.4351 10.6307 77.216 10.355 78.0272 10.2419C81.2338 9.79009 83.5445 11.5347 83.8287 14.8044C84.1129 18.074 83.8905 21.4692 83.9461 24.8016C83.9461 25.0902 83.8534 25.1906 83.563 25.1906C82.3274 25.1906 81.0917 25.1906 79.856 25.1906C79.3247 25.1906 79.4915 24.8204 79.4915 24.5631C79.4915 21.9817 79.4915 19.4003 79.4915 16.8189C79.4915 16.6431 79.4915 16.4674 79.4915 16.2917C79.4421 14.7793 78.6759 13.9321 77.3784 13.9321C77.0513 13.922 76.7255 13.9781 76.4199 14.097C76.1143 14.2159 75.835 14.3953 75.5982 14.6248C75.3613 14.8542 75.1718 15.1292 75.0404 15.4336C74.9091 15.7381 74.8385 16.066 74.8329 16.3984C74.8329 19.1032 74.8329 21.8081 74.8329 24.5192C74.8329 25.1028 74.6723 25.222 74.141 25.1969C73.0536 25.153 71.9662 25.1656 70.8788 25.1969C70.4463 25.1969 70.3598 25.0589 70.3598 24.6447C70.3598 21.9649 70.3598 19.2852 70.3598 16.5992C70.3598 14.9048 69.6369 13.9634 68.3085 13.9321C67.9543 13.9109 67.5997 13.9674 67.2689 14.0979C66.9381 14.2283 66.6389 14.4296 66.3915 14.688C66.1441 14.9464 65.9544 15.2559 65.8353 15.5955C65.7162 15.935 65.6705 16.2966 65.7013 16.6557C65.7013 19.235 65.6642 21.8206 65.7013 24.3999C65.7013 25.0902 65.5097 25.2346 64.8795 25.1969C63.8477 25.1467 62.8098 25.1656 61.7903 25.1969C61.4134 25.1969 61.2961 25.1028 61.2961 24.7074C61.2961 20.145 61.2961 15.5826 61.2961 11.0201C61.2961 10.5181 61.4814 10.449 61.9139 10.4616C62.9024 10.4616 63.891 10.5055 64.8733 10.4616C65.4232 10.4302 65.553 10.6499 65.5283 11.1394C65.5282 11.4586 65.551 11.7774 65.5962 12.0933C66.1479 11.4717 66.8273 10.9809 67.5864 10.6555C68.3455 10.3302 69.1658 10.1783 69.9891 10.2106C70.8132 10.1848 71.6263 10.4077 72.3257 10.8512C73.0251 11.2946 73.5794 11.9387 73.9185 12.702Z" fill="white"/>
<path d="M40.7096 11.9803C40.759 11.9176 40.8022 11.8862 40.8084 11.8485C40.9382 10.4616 40.9382 10.4616 42.3036 10.4616C43.0944 10.4616 43.8853 10.4616 44.6699 10.4616C45.053 10.4616 45.1827 10.562 45.1827 10.9636C45.1827 15.5658 45.1827 20.1513 45.1827 24.72C45.1827 25.1593 45.0098 25.2032 44.6576 25.1969C43.5269 25.1969 42.3901 25.1969 41.2533 25.1969C40.8517 25.1969 40.6725 25.1028 40.7219 24.6635C40.7404 24.3521 40.7404 24.0398 40.7219 23.7284C40.4872 23.6092 40.413 23.7974 40.3203 23.879C39.7305 24.4238 39.0378 24.8411 38.2842 25.1055C37.5307 25.37 36.7322 25.4761 35.9371 25.4174C35.1419 25.3587 34.3669 25.1364 33.6589 24.7641C32.951 24.3918 32.3249 23.8771 31.8188 23.2515C29.1374 20.0383 29.471 14.4027 32.4367 11.6916C34.5559 9.75871 38.4235 9.5014 40.5427 11.8673C40.5926 11.913 40.6489 11.9511 40.7096 11.9803ZM34.3829 17.9359C34.3665 18.5857 34.4998 19.2304 34.7721 19.8187C35.0004 20.3922 35.3995 20.879 35.9135 21.2109C36.4274 21.5428 37.0307 21.7033 37.6389 21.67C38.2472 21.6985 38.8488 21.532 39.3588 21.1941C39.8688 20.8563 40.2614 20.3641 40.481 19.7873C40.7601 19.1581 40.9019 18.4751 40.8965 17.785C40.8912 17.095 40.7389 16.4143 40.4501 15.7897C40.2419 15.3123 39.9198 14.8952 39.5128 14.5762C39.1059 14.2572 38.627 14.0464 38.1196 13.9629C37.6122 13.8794 37.0923 13.9258 36.6071 14.098C36.1218 14.2701 35.6864 14.5625 35.3405 14.9487C34.6504 15.7797 34.3068 16.8515 34.3829 17.9359Z" fill="white"/>
<path d="M97.1988 23.5088C94.0416 26.7784 88.2216 26.019 86.7758 20.1701C86.0344 17.1703 86.436 14.3023 88.6726 11.9427C90.9092 9.58299 94.919 9.50768 96.9702 11.8422C97.0273 11.8981 97.0893 11.9485 97.1555 11.9929C97.1988 11.9175 97.2606 11.8673 97.2606 11.8109C97.3409 10.4741 97.3409 10.4741 98.6507 10.4741C99.4663 10.4741 100.276 10.4741 101.091 10.4741C101.474 10.4741 101.653 10.5243 101.653 10.9887C101.653 15.57 101.653 20.1534 101.653 24.7388C101.653 25.1844 101.48 25.2158 101.134 25.2095C100.004 25.2095 98.867 25.1718 97.7363 25.2095C97.242 25.2095 97.1185 25.04 97.1926 24.6133C97.2235 24.2869 97.1988 23.9606 97.1988 23.5088ZM97.3224 17.7414C97.3468 17.3343 97.2986 16.9262 97.1803 16.5365C97.0786 15.9375 96.8078 15.3814 96.4009 14.9358C95.994 14.4902 95.4685 14.1742 94.8881 14.0262C94.3195 13.8476 93.7112 13.8473 93.1424 14.0254C92.5737 14.2034 92.0711 14.5514 91.7 15.024C91.1303 15.8296 90.8238 16.7965 90.8238 17.7885C90.8238 18.7804 91.1303 19.7473 91.7 20.5529C92.1358 21.1047 92.7599 21.4699 93.4485 21.5758C95.7469 21.9461 97.3286 20.4023 97.3224 17.7288V17.7414Z" fill="white"/>
<path d="M24.034 5.27159C25.3788 4.60699 26.9145 4.45769 28.3589 4.85112H28.4331C30.2063 5.37828 30.2866 5.5791 29.6688 7.27354C29.5638 7.4997 29.473 7.73237 29.3969 7.97014C29.193 8.71695 28.9335 9.18135 28.0315 8.70439C27.7904 8.59735 27.5219 8.57128 27.2652 8.62998C27.0085 8.68868 26.7769 8.82907 26.6042 9.03072C26.1594 9.5014 26.2768 10.1039 26.2768 10.675C26.2768 10.9574 26.5116 10.8695 26.6661 10.8758C27.3519 10.8758 28.0438 10.8758 28.7358 10.8758C29.0942 10.8758 29.2672 10.926 29.2486 11.3527C29.2116 12.2564 29.2116 13.1601 29.2486 14.0576C29.2486 14.5282 29.0694 14.591 28.6864 14.5784C28.0685 14.5784 27.5001 14.6098 26.9132 14.5784C26.3262 14.5471 26.2583 14.6977 26.2583 15.206C26.2583 18.2874 26.2583 21.3687 26.2583 24.4501C26.2583 25.0212 26.1409 25.222 25.5478 25.1906C24.5098 25.1342 23.4718 25.1404 22.4586 25.1906C21.9519 25.1906 21.7975 25.0902 21.8036 24.5631C21.8036 21.5005 21.8036 18.4443 21.8036 15.388C21.8036 15.1495 21.9828 14.842 21.6677 14.6475C21.3526 14.4529 20.8522 14.5471 20.432 14.5533L19.7339 14.5031C19.7339 13.7061 19.7339 12.9028 19.7339 12.1058C19.7339 10.8946 19.7339 10.8507 20.9325 10.9134C21.6183 10.9448 21.921 10.7942 21.8222 10.0348C21.8056 9.6145 21.8347 9.1936 21.9087 8.7797C22.0261 7.61242 22.6995 6.715 23.3173 5.79247C23.469 5.76978 23.6131 5.71069 23.7377 5.6201C23.8624 5.52952 23.964 5.41004 24.034 5.27159Z" fill="white"/>
<path d="M106.658 19.7434C106.658 18.1933 106.658 16.6369 106.658 15.0805C106.658 14.5283 106.571 14.2772 105.947 14.3149C105.323 14.3525 104.551 14.6098 104.174 14.1956C103.797 13.7814 104.069 12.997 104.075 12.3757C104.082 11.7544 103.804 10.9699 104.205 10.562C104.607 10.1541 105.336 10.4302 105.917 10.4553C106.497 10.4804 106.695 10.3173 106.658 9.7148C106.602 8.89268 106.658 8.05801 106.658 7.20452C106.658 6.80287 106.782 6.67736 107.165 6.68363C108.277 6.68363 109.389 6.68363 110.495 6.68363C110.952 6.68363 111.02 6.87817 111.014 7.26727C111.014 8.14587 111.014 9.02446 111.014 9.89679C111.014 10.2922 111.125 10.4365 111.514 10.4177C112.132 10.4177 112.75 10.4177 113.368 10.4177C113.72 10.4177 113.843 10.5306 113.837 10.8883C113.837 11.8925 113.837 12.8966 113.837 13.9007C113.837 14.2396 113.714 14.3274 113.405 14.3212C112.787 14.3212 112.219 14.3212 111.625 14.3212C111.137 14.3212 111.008 14.4529 111.008 14.9487C111.008 18.0866 111.008 21.2621 111.008 24.425C111.008 24.9836 110.909 25.2158 110.297 25.1844C109.284 25.1216 108.271 25.1405 107.257 25.1844C106.782 25.1844 106.639 25.0651 106.639 24.5568C106.676 22.9753 106.658 21.3688 106.658 19.7434Z" fill="#FF0000"/>
<path d="M53.1776 12.6079C53.6356 12.0597 54.1424 11.5556 54.6913 11.1017C55.2578 10.676 55.9098 10.3826 56.6009 10.2427C57.2919 10.1027 58.0049 10.1196 58.6887 10.2922C59.0533 10.3675 59.1954 10.5055 59.0904 10.9197C58.7505 12.2502 58.4107 13.5806 58.108 14.9173C58.0215 15.3064 57.9103 15.3441 57.5643 15.1997C56.9175 14.9362 56.21 14.8665 55.5254 14.9989C54.2218 15.2311 53.3877 16.3482 53.3753 17.9171C53.3753 20.1199 53.3753 22.3101 53.3753 24.5317C53.3753 25.1154 53.2147 25.2409 52.6833 25.2158C51.5959 25.1718 50.5085 25.2158 49.4211 25.2158C49.0751 25.2158 48.9516 25.1279 48.9577 24.7576C48.9577 20.1555 48.9577 15.5658 48.9577 10.9888C48.9577 10.5997 49.0689 10.4679 49.4582 10.4804C50.5209 10.5055 51.5836 10.5055 52.6463 10.4804C53.0911 10.4804 53.1961 10.6373 53.1714 11.0452C53.1467 11.4532 53.1776 11.9427 53.1776 12.6079Z" fill="white"/>
<path d="M20.4197 14.5471C20.8274 14.5471 21.2537 14.3839 21.6553 14.6412C19.116 18.4066 16.6632 22.2724 14.0003 25.9374C13.1673 27.1761 11.9656 28.1112 10.5714 28.6058C9.17721 29.1005 7.66367 29.1286 6.25256 28.6862C3.07068 27.8515 0.889724 25.7806 0.179206 22.4105C-0.0294543 21.401 -0.0273069 20.3583 0.185541 19.3498C0.39839 18.3412 0.817203 17.3892 1.41489 16.5553C4.35581 12.1665 7.30907 7.79023 10.2747 3.42652C11.0307 2.18945 12.1333 1.21006 13.4411 0.614056C14.749 0.0180511 16.2023 -0.167377 17.6147 0.0815755C19.031 0.257027 20.375 0.815469 21.5064 1.69859C22.6377 2.58171 23.5149 3.75713 24.0464 5.10213C24.0529 5.15003 24.0529 5.19858 24.0464 5.24647C23.9731 5.38495 23.8679 5.50345 23.74 5.59193C23.612 5.68042 23.4649 5.73629 23.3112 5.75481C22.6858 4.09822 21.4891 2.72884 19.9439 1.90153C18.5954 1.04989 16.9846 0.734496 15.4211 1.01599C13.8575 1.29748 12.4515 2.15599 11.4733 3.42652C10.9229 4.02795 10.4477 4.69614 10.0585 5.41592C9.18733 6.67106 8.32852 7.96385 7.42647 9.21272C7.0743 9.70222 7.10521 9.95952 7.63037 10.3172C10.7937 12.4886 13.9262 14.7102 17.071 16.8879C18.3993 17.8167 18.3993 17.8167 19.289 16.4925C19.6103 16.0156 19.9069 15.5449 20.2529 15.0679C20.3641 14.9173 20.5062 14.773 20.4197 14.5471ZM1.18011 19.4609C1.12714 19.5691 1.08571 19.6827 1.05653 19.7998C0.78778 21.5492 1.17415 23.3373 2.13945 24.8115C3.10475 26.2858 4.5789 27.3391 6.27111 27.7637C7.48528 28.1215 8.77604 28.1101 9.98389 27.7309C11.1917 27.3517 12.2637 26.6213 13.0674 25.6299C14.649 23.6217 15.9589 21.4127 17.4293 19.3542C17.6826 18.9965 17.3243 18.9275 17.1575 18.8083C13.6543 16.3545 10.1388 13.9195 6.65417 11.4594C6.30818 11.2147 6.1599 11.2398 5.92512 11.5975C4.68944 13.4802 3.36726 15.3943 2.10068 17.2958C1.61405 17.9242 1.2968 18.6703 1.18011 19.4609Z" fill="#242321"/>
<path d="M125.199 19.225C125.199 16.9972 125.199 14.7693 125.199 12.5414C125.199 12.0331 125.304 11.8385 125.817 11.8636C126.898 11.9076 127.986 11.895 129.073 11.8636C129.493 11.8636 129.617 11.9954 129.617 12.4159C129.617 16.9721 129.617 21.5303 129.617 26.0907C129.617 26.486 129.5 26.6115 129.11 26.599C128.004 26.599 126.892 26.5676 125.786 26.599C125.298 26.599 125.168 26.4672 125.168 25.9714C125.212 23.7373 125.199 21.478 125.199 19.225Z" fill="#FF0000"/>
<path d="M122.147 21.7579C122.152 22.2335 122.064 22.7055 121.889 23.1465C121.713 23.5875 121.453 23.9888 121.124 24.3272C120.795 24.6656 120.403 24.9344 119.971 25.1182C119.539 25.3019 119.075 25.397 118.607 25.3978C117.661 25.4062 116.75 25.0341 116.073 24.3628C115.396 23.6914 115.007 22.7753 114.993 21.8143C114.989 21.3328 115.08 20.8554 115.259 20.4094C115.437 19.9634 115.701 19.5577 116.035 19.2154C116.368 18.8732 116.765 18.6012 117.202 18.415C117.639 18.2288 118.108 18.1321 118.582 18.1305C119.051 18.1305 119.515 18.2244 119.948 18.4067C120.381 18.5891 120.774 18.8564 121.105 19.1933C121.436 19.5302 121.699 19.9301 121.878 20.3702C122.056 20.8102 122.148 21.2818 122.147 21.7579Z" fill="white"/>
<path d="M127.374 7.59988C125.669 7.59988 124.668 6.65853 124.755 5.15237C124.835 3.89723 125.811 3.04373 127.325 2.98725C129.178 2.91822 130.266 4.09805 129.944 5.81759C129.734 6.92839 128.764 7.59988 127.374 7.59988Z" fill="#FF0000"/>
<path d="M19.9316 1.92664C21.4768 2.75395 22.6734 4.12332 23.2988 5.77992C22.681 6.70245 22.0075 7.59987 21.8901 8.76715C21.8161 9.18105 21.7871 9.60195 21.8036 10.0223C21.9025 10.7816 21.5997 10.9323 20.9139 10.9009C19.7215 10.8444 19.7153 10.9009 19.7153 12.0933C19.7153 12.8903 19.7153 13.6936 19.7153 14.4906C19.6721 14.6036 20.0304 14.6726 19.7647 14.7981C19.5164 14.9041 19.2494 14.9575 18.9801 14.955C16.9412 15.0428 15.273 14.1329 13.7037 12.9593C12.5051 12.0556 11.3003 11.1519 10.6578 9.67713C10.0399 8.30275 10.0832 6.86561 10.0399 5.4222C10.429 4.70397 10.902 4.03601 11.4486 3.43281C11.4054 4.06037 11.9614 4.11686 12.2951 4.30513C12.6287 4.4934 12.7275 4.01018 12.8758 3.80308C14.2413 1.92037 16.0577 1.42459 18.1275 2.35967C19.2149 2.84917 19.2149 2.84917 19.9316 1.92664Z" fill="#FF0000"/>
<path d="M10.0585 5.42847C10.0585 6.87188 10.0585 8.30901 10.6763 9.68339C11.2942 11.1582 12.5298 12.0619 13.7223 12.9656C15.2792 14.1391 16.9597 15.0491 18.9986 14.9613C19.268 14.9638 19.535 14.9104 19.7833 14.8044C20.049 14.6788 19.6906 14.6098 19.7338 14.4968L20.432 14.5471C20.5185 14.773 20.3764 14.9173 20.2652 15.0805C19.9377 15.5574 19.6473 16.0281 19.3014 16.5051C18.4302 17.8606 18.4302 17.8606 17.071 16.9004C13.9261 14.7102 10.7937 12.5075 7.63036 10.3298C7.10519 9.97207 7.07429 9.70222 7.42646 9.22527C8.32851 7.9764 9.1626 6.69616 10.0585 5.42847Z" fill="#C12D2D"/>
<path d="M1.18011 19.4609C1.27892 18.6636 1.58136 17.9063 2.05744 17.2645C3.29312 15.3817 4.62148 13.499 5.88188 11.5661C6.11666 11.2084 6.26494 11.1833 6.61093 11.4281C10.1141 13.8881 13.6296 16.3231 17.1142 18.7769C17.281 18.8961 17.6394 18.9652 17.3861 19.3229C15.9156 21.4127 14.6058 23.6217 13.0241 25.5986C12.8079 25.6362 12.5855 25.6551 12.4063 25.7115C10.8056 26.2197 9.1405 26.4882 7.46355 26.5086C4.37434 26.4081 1.90298 24.6761 1.60024 21.1303C1.63951 20.5425 1.49227 19.9575 1.18011 19.4609Z" fill="#FDFDFD"/>
<path d="M1.18008 19.4609C1.50307 19.9647 1.65496 20.562 1.61257 21.1616C1.94003 24.7074 4.36814 26.4395 7.47588 26.5399C9.15283 26.5195 10.8179 26.251 12.4186 25.7429C12.6287 25.6864 12.8511 25.6676 13.0365 25.63C12.2328 26.6213 11.1608 27.3517 9.95298 27.7309C8.74512 28.1101 7.45436 28.1215 6.2402 27.7637C4.54799 27.3391 3.07384 26.2858 2.10854 24.8116C1.14324 23.3373 0.756867 21.5492 1.02562 19.7998C1.06465 19.6814 1.11646 19.5678 1.18008 19.4609Z" fill="#DAD4D8"/>
<path d="M19.9316 1.92664C19.2149 2.84916 19.2149 2.84916 18.146 2.36593C16.0762 1.43085 14.2598 1.93919 12.8943 3.80934C12.7461 4.01644 12.6472 4.49967 12.3136 4.3114C11.9799 4.12313 11.4239 4.04782 11.4671 3.43908C12.4477 2.17337 13.8532 1.3193 15.4149 1.04026C16.9765 0.761217 18.5846 1.0768 19.9316 1.92664Z" fill="#FBF6F6"/>
<path d="M20.4197 14.5471C20.8274 14.5471 21.2537 14.3839 21.6553 14.6412C19.116 18.4066 16.6632 22.2724 14.0003 25.9374C13.1673 27.1761 11.9656 28.1112 10.5714 28.6058C9.17721 29.1005 7.66367 29.1286 6.25256 28.6862C3.07068 27.8515 0.889724 25.7806 0.179206 22.4105C-0.0294543 21.401 -0.0273069 20.3583 0.185541 19.3498C0.39839 18.3412 0.817203 17.3892 1.41489 16.5553C4.35581 12.1665 7.30907 7.79023 10.2747 3.42652C11.0307 2.18945 12.1333 1.21006 13.4411 0.614056C14.749 0.0180511 16.2023 -0.167377 17.6147 0.0815755C19.031 0.257027 20.375 0.815469 21.5064 1.69859C22.6377 2.58171 23.5149 3.75713 24.0464 5.10213C24.0529 5.15003 24.0529 5.19858 24.0464 5.24647C23.9731 5.38495 23.8679 5.50345 23.74 5.59193C23.612 5.68042 23.4649 5.73629 23.3112 5.75481C22.6858 4.09822 21.4891 2.72884 19.9439 1.90153C18.5954 1.04989 16.9846 0.734496 15.4211 1.01599C13.8575 1.29748 12.4515 2.15599 11.4733 3.42652C10.9229 4.02795 10.4477 4.69614 10.0585 5.41592C9.18733 6.67106 8.32852 7.96385 7.42647 9.21272C7.0743 9.70222 7.10521 9.95952 7.63037 10.3172C10.7937 12.4886 13.9262 14.7102 17.071 16.8879C18.3993 17.8167 18.3993 17.8167 19.289 16.4925C19.6103 16.0156 19.9069 15.5449 20.2529 15.0679C20.3641 14.9173 20.5062 14.773 20.4197 14.5471ZM1.18011 19.4609C1.12714 19.5691 1.08571 19.6827 1.05653 19.7998C0.78778 21.5492 1.17415 23.3373 2.13945 24.8115C3.10475 26.2858 4.5789 27.3391 6.27111 27.7637C7.48528 28.1215 8.77604 28.1101 9.98389 27.7309C11.1917 27.3517 12.2637 26.6213 13.0674 25.6299C14.649 23.6217 15.9589 21.4127 17.4293 19.3542C17.6826 18.9965 17.3243 18.9275 17.1575 18.8083C13.6543 16.3545 10.1388 13.9195 6.65417 11.4594C6.30818 11.2147 6.1599 11.2398 5.92512 11.5975C4.68944 13.4802 3.36726 15.3943 2.10068 17.2958C1.61405 17.9242 1.2968 18.6703 1.18011 19.4609Z" fill="#242321"/>
<path d="M19.9316 1.92664C21.4768 2.75395 22.6734 4.12332 23.2988 5.77992C22.681 6.70245 22.0075 7.59987 21.8901 8.76715C21.8161 9.18105 21.7871 9.60195 21.8036 10.0223C21.9025 10.7816 21.5997 10.9323 20.9139 10.9009C19.7215 10.8444 19.7153 10.9009 19.7153 12.0933C19.7153 12.8903 19.7153 13.6936 19.7153 14.4906C19.6721 14.6036 20.0304 14.6726 19.7647 14.7981C19.5164 14.9041 19.2494 14.9575 18.9801 14.955C16.9412 15.0428 15.273 14.1329 13.7037 12.9593C12.5051 12.0556 11.3003 11.1519 10.6578 9.67713C10.0399 8.30275 10.0832 6.86561 10.0399 5.4222C10.429 4.70397 10.902 4.03601 11.4486 3.43281C11.4054 4.06037 11.9614 4.11686 12.2951 4.30513C12.6287 4.4934 12.7275 4.01018 12.8758 3.80308C14.2413 1.92037 16.0577 1.42459 18.1275 2.35967C19.2149 2.84917 19.2149 2.84917 19.9316 1.92664Z" fill="#FF0000"/>
<path d="M10.0585 5.42847C10.0585 6.87188 10.0585 8.30901 10.6763 9.68339C11.2942 11.1582 12.5298 12.0619 13.7223 12.9656C15.2792 14.1391 16.9597 15.0491 18.9986 14.9613C19.268 14.9638 19.535 14.9104 19.7833 14.8044C20.049 14.6788 19.6906 14.6098 19.7338 14.4968L20.432 14.5471C20.5185 14.773 20.3764 14.9173 20.2652 15.0805C19.9377 15.5574 19.6473 16.0281 19.3014 16.5051C18.4302 17.8606 18.4302 17.8606 17.071 16.9004C13.9261 14.7102 10.7937 12.5075 7.63036 10.3298C7.10519 9.97207 7.07429 9.70222 7.42646 9.22527C8.32851 7.9764 9.1626 6.69616 10.0585 5.42847Z" fill="#C12D2D"/>
<path d="M1.18011 19.4609C1.27892 18.6636 1.58136 17.9063 2.05744 17.2645C3.29312 15.3817 4.62148 13.499 5.88188 11.5661C6.11666 11.2084 6.26494 11.1833 6.61093 11.4281C10.1141 13.8881 13.6296 16.3231 17.1142 18.7769C17.281 18.8961 17.6394 18.9652 17.3861 19.3229C15.9156 21.4127 14.6058 23.6217 13.0241 25.5986C12.8079 25.6362 12.5855 25.6551 12.4063 25.7115C10.8056 26.2197 9.1405 26.4882 7.46355 26.5086C4.37434 26.4081 1.90298 24.6761 1.60024 21.1303C1.63951 20.5425 1.49227 19.9575 1.18011 19.4609Z" fill="#FDFDFD"/>
<path d="M1.18008 19.4609C1.50307 19.9647 1.65496 20.562 1.61257 21.1616C1.94003 24.7074 4.36814 26.4395 7.47588 26.5399C9.15283 26.5195 10.8179 26.251 12.4186 25.7429C12.6287 25.6864 12.8511 25.6676 13.0365 25.63C12.2328 26.6213 11.1608 27.3517 9.95298 27.7309C8.74512 28.1101 7.45436 28.1215 6.2402 27.7637C4.54799 27.3391 3.07384 26.2858 2.10854 24.8116C1.14324 23.3373 0.756867 21.5492 1.02562 19.7998C1.06465 19.6814 1.11646 19.5678 1.18008 19.4609Z" fill="#DAD4D8"/>
<path d="M19.9315 1.92664C19.2148 2.84916 19.2148 2.84916 18.146 2.36593C16.0762 1.43085 14.2597 1.93919 12.8943 3.80934C12.746 4.01644 12.6472 4.49967 12.3135 4.3114C11.9799 4.12313 11.4239 4.04782 11.4671 3.43908C12.4476 2.17337 13.8532 1.3193 15.4149 1.04026C16.9765 0.761217 18.5846 1.0768 19.9315 1.92664Z" fill="#FBF6F6"/>
<path d="M1.18008 19.4609C1.50307 19.9647 1.65496 20.562 1.61257 21.1616C1.94003 24.7074 4.36814 26.4395 7.47588 26.5399C9.15283 26.5195 10.8179 26.251 12.4186 25.7429C12.6287 25.6864 12.8511 25.6676 13.0365 25.63C12.2328 26.6213 11.1608 27.3517 9.95298 27.7309C8.74512 28.1101 7.45436 28.1215 6.2402 27.7637C4.54799 27.3391 3.07384 26.2858 2.10854 24.8116C1.14324 23.3373 0.756867 21.5492 1.02562 19.7998C1.06465 19.6814 1.11646 19.5678 1.18008 19.4609Z" fill="#DAD4D8"/>
<path d="M19.9315 1.92664C19.2148 2.84916 19.2148 2.84916 18.146 2.36593C16.0762 1.43085 14.2597 1.93919 12.8943 3.80934C12.746 4.01644 12.6472 4.49967 12.3135 4.3114C11.9799 4.12313 11.4239 4.04782 11.4671 3.43908C12.4476 2.17337 13.8532 1.3193 15.4149 1.04026C16.9765 0.761217 18.5846 1.0768 19.9315 1.92664Z" fill="#FBF6F6"/>
<path d="M20.4197 14.5471C20.8274 14.5471 21.2537 14.3839 21.6553 14.6412C19.116 18.4066 16.6632 22.2724 14.0003 25.9374C13.1673 27.1761 11.9656 28.1112 10.5714 28.6058C9.17721 29.1005 7.66367 29.1286 6.25256 28.6862C3.07068 27.8515 0.889724 25.7806 0.179206 22.4105C-0.0294543 21.401 -0.0273069 20.3583 0.185541 19.3498C0.39839 18.3412 0.817203 17.3892 1.41489 16.5553C4.35581 12.1665 7.30907 7.79023 10.2747 3.42652C11.0307 2.18945 12.1333 1.21006 13.4411 0.614056C14.749 0.0180511 16.2023 -0.167377 17.6147 0.0815755C19.031 0.257027 20.375 0.815469 21.5064 1.69859C22.6377 2.58171 23.5149 3.75713 24.0464 5.10213C24.0529 5.15003 24.0529 5.19858 24.0464 5.24647C23.9731 5.38495 23.8679 5.50345 23.74 5.59193C23.612 5.68042 23.4649 5.73629 23.3112 5.75481C22.6858 4.09822 21.4891 2.72884 19.9439 1.90153C18.5954 1.04989 16.9846 0.734496 15.4211 1.01599C13.8575 1.29748 12.4515 2.15599 11.4733 3.42652C10.9229 4.02795 10.4477 4.69614 10.0585 5.41592C9.18733 6.67106 8.32852 7.96385 7.42647 9.21272C7.0743 9.70222 7.10521 9.95952 7.63037 10.3172C10.7937 12.4886 13.9262 14.7102 17.071 16.8879C18.3993 17.8167 18.3993 17.8167 19.289 16.4925C19.6103 16.0156 19.9069 15.5449 20.2529 15.0679C20.3641 14.9173 20.5062 14.773 20.4197 14.5471ZM1.18011 19.4609C1.12714 19.5691 1.08571 19.6827 1.05653 19.7998C0.78778 21.5492 1.17415 23.3373 2.13945 24.8115C3.10475 26.2858 4.5789 27.3391 6.27111 27.7637C7.48528 28.1215 8.77604 28.1101 9.98389 27.7309C11.1917 27.3517 12.2637 26.6213 13.0674 25.6299C14.649 23.6217 15.9589 21.4127 17.4293 19.3542C17.6826 18.9965 17.3243 18.9275 17.1575 18.8083C13.6543 16.3545 10.1388 13.9195 6.65417 11.4594C6.30818 11.2147 6.1599 11.2398 5.92512 11.5975C4.68944 13.4802 3.36726 15.3943 2.10068 17.2958C1.61405 17.9242 1.2968 18.6703 1.18011 19.4609Z" fill="#242321"/>
<path d="M19.9316 1.92664C21.4768 2.75395 22.6734 4.12332 23.2988 5.77992C22.681 6.70245 22.0075 7.59987 21.8901 8.76715C21.8161 9.18105 21.7871 9.60195 21.8036 10.0223C21.9025 10.7816 21.5997 10.9323 20.9139 10.9009C19.7215 10.8444 19.7153 10.9009 19.7153 12.0933C19.7153 12.8903 19.7153 13.6936 19.7153 14.4906C19.6721 14.6036 20.0304 14.6726 19.7647 14.7981C19.5164 14.9041 19.2494 14.9575 18.9801 14.955C16.9412 15.0428 15.273 14.1329 13.7037 12.9593C12.5051 12.0556 11.3003 11.1519 10.6578 9.67713C10.0399 8.30275 10.0832 6.86561 10.0399 5.4222C10.429 4.70397 10.902 4.03601 11.4486 3.43281C11.4054 4.06037 11.9614 4.11686 12.2951 4.30513C12.6287 4.4934 12.7275 4.01018 12.8758 3.80308C14.2413 1.92037 16.0577 1.42459 18.1275 2.35967C19.2149 2.84917 19.2149 2.84917 19.9316 1.92664Z" fill="#FF0000"/>
<path d="M10.0585 5.42847C10.0585 6.87188 10.0585 8.30901 10.6763 9.68339C11.2942 11.1582 12.5298 12.0619 13.7223 12.9656C15.2792 14.1391 16.9597 15.0491 18.9986 14.9613C19.268 14.9638 19.535 14.9104 19.7833 14.8044C20.049 14.6788 19.6906 14.6098 19.7338 14.4968L20.432 14.5471C20.5185 14.773 20.3764 14.9173 20.2652 15.0805C19.9377 15.5574 19.6473 16.0281 19.3014 16.5051C18.4302 17.8606 18.4302 17.8606 17.071 16.9004C13.9261 14.7102 10.7937 12.5075 7.63036 10.3298C7.10519 9.97207 7.07429 9.70222 7.42646 9.22527C8.32851 7.9764 9.1626 6.69616 10.0585 5.42847Z" fill="#ED0808"/>
<path d="M1.18011 19.4609C1.27892 18.6636 1.58136 17.9063 2.05744 17.2645C3.29312 15.3817 4.62148 13.499 5.88188 11.5661C6.11666 11.2084 6.26494 11.1833 6.61093 11.4281C10.1141 13.8881 13.6296 16.3231 17.1142 18.7769C17.281 18.8961 17.6394 18.9652 17.3861 19.3229C15.9156 21.4127 14.6058 23.6217 13.0241 25.5986C12.8079 25.6362 12.5855 25.6551 12.4063 25.7115C10.8056 26.2197 9.1405 26.4882 7.46355 26.5086C4.37434 26.4081 1.90298 24.6761 1.60024 21.1303C1.63951 20.5425 1.49227 19.9575 1.18011 19.4609Z" fill="#FDFDFD"/>
<path d="M1.18008 19.4609C1.50307 19.9647 1.65496 20.562 1.61257 21.1616C1.94003 24.7074 4.36814 26.4395 7.47588 26.5399C9.15283 26.5195 10.8179 26.251 12.4186 25.7429C12.6287 25.6864 12.8511 25.6676 13.0365 25.63C12.2328 26.6213 11.1608 27.3517 9.95298 27.7309C8.74512 28.1101 7.45436 28.1215 6.2402 27.7637C4.54799 27.3391 3.07384 26.2858 2.10854 24.8116C1.14324 23.3373 0.756867 21.5492 1.02562 19.7998C1.06465 19.6814 1.11646 19.5678 1.18008 19.4609Z" fill="#DAD4D8"/>
<path d="M19.9315 1.92664C19.2148 2.84916 19.2148 2.84916 18.146 2.36593C16.0762 1.43085 14.2597 1.93919 12.8943 3.80934C12.746 4.01644 12.6472 4.49967 12.3135 4.3114C11.9799 4.12313 11.4239 4.04782 11.4671 3.43908C12.4476 2.17337 13.8532 1.3193 15.4149 1.04026C16.9765 0.761217 18.5846 1.0768 19.9315 1.92664Z" fill="#FBF6F6"/>
</g>
<defs>
<clipPath id="clip0_12_2">
<rect width="130" height="29" fill="white"/>
</clipPath>
</defs>
</svg>
