<svg xmlns="http://www.w3.org/2000/svg" version="1.1" xmlns:xlink="http://www.w3.org/1999/xlink" xmlns:svgjs="http://svgjs.com/svgjs" width="277.79" height="322.92"><svg id="SvgjsSvg1000" data-name="Camada 1" xmlns="http://www.w3.org/2000/svg" viewBox="0 0 277.79 322.92"><defs><style>.cls-1{fill:#201f1d;}.cls-2{fill:#fefefe;}.cls-3{fill:#fe0000;}.cls-4{fill:#eb0808;}.cls-5{fill:#dcd7da;}.cls-6{fill:#fcfafa;}</style></defs><path class="cls-1" d="M294.52,92.13c0,19.89-5.31,36.19-15.44,51q-23.29,34-46.63,67.94c-18.4,26.86-36.36,54-55.23,80.55-27.3,38.35-78.78,47-118.09,21-20.07-13.28-34.3-30.57-39.88-54.2-5.9-25-1.41-48.19,13.06-69.39,15.91-23.3,32-46.5,47.9-69.78,17.4-25.42,34.64-51,52.16-76.32C160.91,1.63,213.9-7.45,255,21.36c20.48,14.35,33.73,33.11,38.27,57.81A62.64,62.64,0,0,1,294.52,92.13ZM144.88,44.5a224.43,224.43,0,0,0-14.3,20.56,4.37,4.37,0,0,0-.81.74c-10.63,15.49-21.2,31-31.93,46.46-1.6,2.31-1,3.11,1,4.49q33.78,23,67.44,46.23l56,38.44c1.53,1.06,2.39,1.7,3.76-.34,7.67-11.48,15.49-22.86,23.26-34.27,8-11.59,16.21-23,23.8-34.82a66.66,66.66,0,0,0,10.53-37.25c-.37-30.92-15-53.42-41.66-68.49A13.32,13.32,0,0,0,240.18,25q-39.65-20.55-77.69,2.85C155.5,32.14,150.15,38.3,144.88,44.5ZM30.68,217.62c-.25.7-.56,1.39-.75,2.1C22.4,248,33.39,279.48,56.55,297.48c19.9,15.46,41.77,22.85,66.92,17.4,17.08-3.7,31.37-12.2,42.18-26.16,6-7,10.68-14.93,15.92-22.47,11.25-16.22,22.37-32.54,33.6-48.91l-12.42-8.55q-56.67-38.94-113.31-77.92c-2.38-1.64-3.25-1.25-4.76,1-14.82,21.77-29.79,43.44-44.63,65.2A62.81,62.81,0,0,0,30.68,217.62Z" transform="translate(-16.73 -4.6)"></path><path class="cls-2" d="M30.68,217.62A62.75,62.75,0,0,1,40.05,197c14.84-21.76,29.81-43.43,44.63-65.2,1.51-2.22,2.38-2.61,4.76-1Q146,169.9,202.75,208.76l12.4,8.58c-11.23,16.37-22.35,32.69-33.6,48.91-5.24,7.54-10,15.45-15.92,22.47-7.76,2.16-15.47,4.5-23.28,6.45C123.79,299.81,105,302,86,298.46c-20.25-3.72-35.23-14.58-44.54-33.15C35.85,254.17,35.23,242,33.3,230,32.65,225.85,33,221.44,30.68,217.62Z" transform="translate(-16.73 -4.6)"></path><path class="cls-3" d="M242,26.25c26.64,15.07,41.29,37.57,41.66,68.49A66.68,66.68,0,0,1,273.15,132c-7.59,11.83-15.84,23.23-23.8,34.82a6.75,6.75,0,0,0-3.19.9c-4.27,1.68-8.61,3.22-13.21,3.58-16.73,1.29-31.74-4-46.07-12-11-6.15-20.58-14.15-30.28-22a71.82,71.82,0,0,1-11.69-11.43,63.89,63.89,0,0,1-12.63-30.18c-1.08-7.41-2.62-14.85-1.08-22.49.52-2.55.75-5.46-.64-8a225.71,225.71,0,0,1,14.29-20.56c-.23,1.12.24,1.68,1.24,2.31,3.15,2,6.26,4,9.22,6.3,1.75,1.34,2.61,1,3.75-.72,1.88-2.92,4-5.71,6.09-8.46q15.21-19.78,40.06-17.26c9.58,1,18.13,4.82,26.24,9.67,1.74,1,2.33,1,3.44-.55C237.15,32.53,239.65,29.42,242,26.25Z" transform="translate(-16.73 -4.6)"></path><path class="cls-4" d="M130.58,65.06c1.39,2.58,1.16,5.49.64,8-1.54,7.64,0,15.08,1.08,22.49a63.89,63.89,0,0,0,12.63,30.18,71.67,71.67,0,0,0,11.69,11.47c9.7,7.89,19.3,15.89,30.28,22,14.33,8,29.34,13.34,46.07,12.05,4.6-.36,8.94-1.9,13.21-3.58a6.75,6.75,0,0,1,3.19-.9c-7.77,11.43-15.59,22.83-23.22,34.31-1.37,2-2.23,1.4-3.76.34q-28-19.29-56-38.44Q132.69,139.85,99,116.75c-2-1.38-2.64-2.18-1-4.49,10.73-15.42,21.3-31,31.93-46.46A4.09,4.09,0,0,1,130.58,65.06Z" transform="translate(-16.73 -4.6)"></path><path class="cls-5" d="M30.68,217.62c2.3,3.82,2,8.23,2.64,12.38,1.93,12,2.55,24.17,8.14,35.31,9.31,18.57,24.29,29.43,44.54,33.15,19,3.49,37.81,1.35,56.37-3.29,7.81-2,15.52-4.29,23.28-6.45-10.81,14-25.1,22.46-42.18,26.16-25.15,5.45-47-1.94-66.92-17.4-23.16-18-34.15-49.53-26.62-77.76C30.15,219,30.43,218.32,30.68,217.62Z" transform="translate(-16.73 -4.6)"></path><path class="cls-6" d="M242,26.25c-2.39,3.17-4.87,6.28-7.13,9.54-1.11,1.59-1.7,1.6-3.44.55-8.11-4.85-16.66-8.7-26.24-9.67q-24.84-2.48-40.08,17.26c-2.12,2.75-4.21,5.54-6.09,8.46-1.14,1.76-2,2.06-3.75.72-3-2.25-6.07-4.33-9.22-6.3-1-.63-1.47-1.19-1.24-2.31,5.3-6.2,10.63-12.36,17.69-16.69q38-23.34,77.69-2.85A13.51,13.51,0,0,1,242,26.25Z" transform="translate(-16.73 -4.6)"></path></svg><style>@media (prefers-color-scheme: light) { :root { filter: none; } }
</style></svg>