<svg width="54" height="54" viewBox="0 0 54 54" fill="none" xmlns="http://www.w3.org/2000/svg">
<path d="M0 13.5C0 11.7098 0.711159 9.9929 1.97703 8.72703C3.2429 7.46116 4.95979 6.75 6.75 6.75H47.25C49.0402 6.75 50.7571 7.46116 52.023 8.72703C53.2888 9.9929 54 11.7098 54 13.5V16.875H0V13.5ZM0 23.625V40.5C0 42.2902 0.711159 44.0071 1.97703 45.273C3.2429 46.5388 4.95979 47.25 6.75 47.25H47.25C49.0402 47.25 50.7571 46.5388 52.023 45.273C53.2888 44.0071 54 42.2902 54 40.5V23.625H0ZM10.125 30.375H13.5C14.3951 30.375 15.2535 30.7306 15.8865 31.3635C16.5194 31.9965 16.875 32.8549 16.875 33.75V37.125C16.875 38.0201 16.5194 38.8785 15.8865 39.5115C15.2535 40.1444 14.3951 40.5 13.5 40.5H10.125C9.22989 40.5 8.37145 40.1444 7.73851 39.5115C7.10558 38.8785 6.75 38.0201 6.75 37.125V33.75C6.75 32.8549 7.10558 31.9965 7.73851 31.3635C8.37145 30.7306 9.22989 30.375 10.125 30.375Z" fill="#000033"/>
</svg>
