<svg width="54" height="54" viewBox="0 0 54 54" fill="none" xmlns="http://www.w3.org/2000/svg">
<path d="M6.75 27H27V30.375H6.75V27ZM3.375 18.5625H20.25V21.9375H3.375V18.5625Z" fill="#000033"/>
<path d="M50.4882 28.0226L45.4257 16.2101C45.2958 15.9065 45.0796 15.6477 44.8039 15.4659C44.5282 15.2841 44.2051 15.1873 43.8749 15.1875H38.8124V11.8125C38.8124 11.3649 38.6346 10.9357 38.3181 10.6193C38.0017 10.3028 37.5724 10.125 37.1249 10.125H10.1249V13.5H35.4374V34.6882C34.6685 35.1348 33.9955 35.7291 33.4574 36.4369C32.9193 37.1448 32.5266 37.9521 32.302 38.8125H21.6978C21.287 37.2218 20.3103 35.8354 18.9505 34.9134C17.5908 33.9913 15.9414 33.5968 14.3116 33.8038C12.6818 34.0108 11.1834 34.8051 10.0973 36.0379C9.01129 37.2706 8.41211 38.8571 8.41211 40.5C8.41211 42.1429 9.01129 43.7294 10.0973 44.9621C11.1834 46.1949 12.6818 46.9892 14.3116 47.1962C15.9414 47.4032 17.5908 47.0087 18.9505 46.0866C20.3103 45.1646 21.287 43.7782 21.6978 42.1875H32.302C32.6691 43.6358 33.5086 44.9203 34.6878 45.8379C35.8669 46.7554 37.3183 47.2536 38.8124 47.2536C40.3065 47.2536 41.7579 46.7554 42.937 45.8379C44.1161 44.9203 44.9557 43.6358 45.3228 42.1875H48.9374C49.3849 42.1875 49.8142 42.0097 50.1306 41.6932C50.4471 41.3768 50.6249 40.9476 50.6249 40.5V28.6875C50.625 28.4589 50.5785 28.2327 50.4882 28.0226ZM15.1874 43.875C14.5199 43.875 13.8674 43.6771 13.3123 43.3062C12.7573 42.9354 12.3247 42.4083 12.0693 41.7916C11.8139 41.1749 11.747 40.4963 11.8772 39.8416C12.0075 39.1869 12.3289 38.5855 12.8009 38.1135C13.2729 37.6415 13.8743 37.3201 14.529 37.1898C15.1836 37.0596 15.8622 37.1265 16.4789 37.3819C17.0956 37.6374 17.6228 38.0699 17.9936 38.6249C18.3645 39.18 18.5624 39.8325 18.5624 40.5C18.5615 41.3948 18.2056 42.2528 17.5729 42.8855C16.9401 43.5182 16.0822 43.8741 15.1874 43.875ZM38.8124 18.5625H42.7611L46.3791 27H38.8124V18.5625ZM38.8124 43.875C38.1449 43.875 37.4924 43.6771 36.9373 43.3062C36.3823 42.9354 35.9497 42.4083 35.6943 41.7916C35.4389 41.1749 35.372 40.4963 35.5022 39.8416C35.6325 39.1869 35.9539 38.5855 36.4259 38.1135C36.8979 37.6415 37.4993 37.3201 38.154 37.1898C38.8086 37.0596 39.4872 37.1265 40.1039 37.3819C40.7206 37.6374 41.2477 38.0699 41.6186 38.6249C41.9894 39.18 42.1874 39.8325 42.1874 40.5C42.1865 41.3948 41.8306 42.2528 41.1979 42.8855C40.5651 43.5182 39.7072 43.8741 38.8124 43.875ZM47.2499 38.8125H45.3228C44.951 37.367 44.1102 36.0858 42.932 35.1696C41.7538 34.2535 40.3049 33.7542 38.8124 33.75V30.375H47.2499V38.8125Z" fill="#000033"/>
</svg>
