<svg width="130" height="41" viewBox="0 0 130 41" fill="none" xmlns="http://www.w3.org/2000/svg">
<g clip-path="url(#clip0_653_2)">
<path d="M73.9184 24.702C74.4086 24.0359 75.0243 23.4754 75.7296 23.0531C76.4349 22.6307 77.2159 22.355 78.0271 22.2419C81.2337 21.7901 83.5444 23.5347 83.8286 26.8044C84.1128 30.074 83.8903 33.4692 83.946 36.8016C83.946 37.0902 83.8533 37.1906 83.5629 37.1906C82.3272 37.1906 81.0915 37.1906 79.8558 37.1906C79.3245 37.1906 79.4913 36.8204 79.4913 36.5631C79.4913 33.9817 79.4913 31.4003 79.4913 28.8189C79.4913 28.6431 79.4913 28.4674 79.4913 28.2917C79.4419 26.7793 78.6758 25.9321 77.3783 25.9321C77.0512 25.922 76.7254 25.9781 76.4197 26.097C76.1141 26.2159 75.8348 26.3953 75.598 26.6248C75.3612 26.8542 75.1716 27.1292 75.0403 27.4336C74.9089 27.7381 74.8384 28.066 74.8328 28.3984C74.8328 31.1032 74.8328 33.8081 74.8328 36.5192C74.8328 37.1028 74.6722 37.222 74.1408 37.1969C73.0534 37.153 71.966 37.1656 70.8786 37.1969C70.4461 37.1969 70.3596 37.0589 70.3596 36.6447C70.3596 33.9649 70.3596 31.2852 70.3596 28.5992C70.3596 26.9048 69.6367 25.9634 68.3084 25.9321C67.9541 25.9109 67.5996 25.9674 67.2688 26.0979C66.938 26.2283 66.6387 26.4296 66.3913 26.688C66.1439 26.9464 65.9542 27.2559 65.8351 27.5955C65.716 27.935 65.6703 28.2966 65.7011 28.6557C65.7011 31.235 65.664 33.8206 65.7011 36.3999C65.7011 37.0902 65.5096 37.2346 64.8794 37.1969C63.8476 37.1467 62.8096 37.1656 61.7902 37.1969C61.4133 37.1969 61.2959 37.1028 61.2959 36.7074C61.2959 32.145 61.2959 27.5826 61.2959 23.0201C61.2959 22.5181 61.4813 22.449 61.9137 22.4616C62.9023 22.4616 63.8908 22.5055 64.8732 22.4616C65.4231 22.4302 65.5528 22.6499 65.5281 23.1394C65.5281 23.4586 65.5508 23.7774 65.5961 24.0933C66.1478 23.4717 66.8272 22.9809 67.5863 22.6555C68.3454 22.3302 69.1656 22.1783 69.9889 22.2106C70.813 22.1848 71.6261 22.4077 72.3255 22.8512C73.0249 23.2946 73.5792 23.9387 73.9184 24.702Z" fill="#000033"/>
<path d="M40.7096 23.9803C40.759 23.9176 40.8023 23.8862 40.8084 23.8485C40.9382 22.4616 40.9382 22.4616 42.3036 22.4616C43.0945 22.4616 43.8853 22.4616 44.6699 22.4616C45.053 22.4616 45.1828 22.562 45.1828 22.9636C45.1828 27.5658 45.1828 32.1513 45.1828 36.72C45.1828 37.1593 45.0098 37.2032 44.6576 37.1969C43.527 37.1969 42.3901 37.1969 41.2533 37.1969C40.8517 37.1969 40.6725 37.1028 40.722 36.6635C40.7405 36.3521 40.7405 36.0398 40.722 35.7284C40.4872 35.6092 40.413 35.7974 40.3204 35.879C39.7305 36.4238 39.0378 36.8411 38.2843 37.1055C37.5308 37.37 36.7322 37.4761 35.9371 37.4174C35.142 37.3587 34.3669 37.1364 33.6589 36.7641C32.951 36.3918 32.325 35.8771 31.8188 35.2515C29.1374 32.0383 29.4711 26.4027 32.4367 23.6916C34.5559 21.7587 38.4236 21.5014 40.5428 23.8673C40.5927 23.913 40.6489 23.9511 40.7096 23.9803ZM34.3829 29.9359C34.3665 30.5857 34.4998 31.2304 34.7721 31.8187C35.0005 32.3922 35.3995 32.879 35.9135 33.2109C36.4275 33.5428 37.0308 33.7033 37.6389 33.67C38.2472 33.6985 38.8488 33.532 39.3589 33.1941C39.8689 32.8563 40.2614 32.3641 40.481 31.7873C40.7601 31.1581 40.9019 30.4751 40.8966 29.785C40.8912 29.095 40.7389 28.4143 40.4501 27.7897C40.242 27.3123 39.9198 26.8952 39.5129 26.5762C39.1059 26.2572 38.6271 26.0464 38.1197 25.9629C37.6123 25.8794 37.0924 25.9258 36.6071 26.098C36.1218 26.2701 35.6865 26.5625 35.3406 26.9487C34.6505 27.7797 34.3069 28.8515 34.3829 29.9359Z" fill="#000033"/>
<path d="M97.199 35.5088C94.0418 38.7784 88.2218 38.019 86.776 32.1701C86.0346 29.1703 86.4362 26.3023 88.6728 23.9427C90.9094 21.583 94.9192 21.5077 96.9704 23.8422C97.0275 23.8981 97.0896 23.9485 97.1558 23.9929C97.199 23.9175 97.2608 23.8673 97.2608 23.8109C97.3411 22.4741 97.3411 22.4741 98.651 22.4741C99.4665 22.4741 100.276 22.4741 101.091 22.4741C101.474 22.4741 101.654 22.5243 101.654 22.9887C101.654 27.57 101.654 32.1534 101.654 36.7388C101.654 37.1844 101.481 37.2158 101.135 37.2095C100.004 37.2095 98.8672 37.1718 97.7365 37.2095C97.2423 37.2095 97.1187 37.04 97.1928 36.6133C97.2237 36.2869 97.199 35.9606 97.199 35.5088ZM97.3226 29.7414C97.347 29.3343 97.2989 28.9262 97.1805 28.5365C97.0788 27.9375 96.8081 27.3814 96.4011 26.9358C95.9942 26.4902 95.4687 26.1742 94.8883 26.0262C94.3197 25.8476 93.7114 25.8473 93.1427 26.0254C92.5739 26.2034 92.0713 26.5514 91.7002 27.024C91.1305 27.8296 90.824 28.7965 90.824 29.7885C90.824 30.7804 91.1305 31.7473 91.7002 32.5529C92.136 33.1047 92.7601 33.4699 93.4487 33.5758C95.7471 33.9461 97.3288 32.4023 97.3226 29.7288V29.7414Z" fill="#000033"/>
<path d="M24.0341 17.2716C25.3788 16.607 26.9145 16.4577 28.359 16.8511H28.4331C30.2063 17.3783 30.2866 17.5791 29.6688 19.2735C29.5638 19.4997 29.473 19.7324 29.3969 19.9701C29.193 20.7169 28.9335 21.1813 28.0315 20.7044C27.7904 20.5974 27.522 20.5713 27.2653 20.63C27.0086 20.6887 26.777 20.8291 26.6043 21.0307C26.1594 21.5014 26.2768 22.1039 26.2768 22.675C26.2768 22.9574 26.5116 22.8695 26.6661 22.8758C27.3519 22.8758 28.0439 22.8758 28.7358 22.8758C29.0942 22.8758 29.2672 22.926 29.2487 23.3527C29.2116 24.2564 29.2116 25.1601 29.2487 26.0576C29.2487 26.5282 29.0695 26.591 28.6864 26.5784C28.0686 26.5784 27.5001 26.6098 26.9132 26.5784C26.3262 26.5471 26.2583 26.6977 26.2583 27.206C26.2583 30.2874 26.2583 33.3687 26.2583 36.4501C26.2583 37.0212 26.1409 37.222 25.5478 37.1906C24.5098 37.1342 23.4718 37.1404 22.4586 37.1906C21.952 37.1906 21.7975 37.0902 21.8037 36.5631C21.8037 33.5005 21.8037 30.4443 21.8037 27.388C21.8037 27.1495 21.9828 26.842 21.6677 26.6475C21.3526 26.4529 20.8522 26.5471 20.4321 26.5533L19.7339 26.5031C19.7339 25.7061 19.7339 24.9028 19.7339 24.1058C19.7339 22.8946 19.7339 22.8507 20.9325 22.9134C21.6183 22.9448 21.921 22.7942 21.8222 22.0348C21.8057 21.6145 21.8347 21.1936 21.9087 20.7797C22.0261 19.6124 22.6995 18.715 23.3174 17.7925C23.469 17.7698 23.6131 17.7107 23.7377 17.6201C23.8624 17.5295 23.964 17.41 24.0341 17.2716Z" fill="#000033"/>
<path d="M106.658 31.7433C106.658 30.1932 106.658 28.6369 106.658 27.0805C106.658 26.5282 106.571 26.2772 105.947 26.3149C105.323 26.3525 104.551 26.6098 104.174 26.1956C103.797 25.7814 104.069 24.997 104.075 24.3757C104.081 23.7544 103.803 22.9699 104.205 22.562C104.607 22.1541 105.336 22.4302 105.916 22.4553C106.497 22.4804 106.695 22.3172 106.658 21.7148C106.602 20.8927 106.658 20.058 106.658 19.2045C106.658 18.8029 106.781 18.6773 107.164 18.6836C108.276 18.6836 109.389 18.6836 110.495 18.6836C110.952 18.6836 111.02 18.8782 111.014 19.2673C111.014 20.1459 111.014 21.0244 111.014 21.8968C111.014 22.2921 111.125 22.4365 111.514 22.4177C112.132 22.4177 112.75 22.4177 113.367 22.4177C113.72 22.4177 113.843 22.5306 113.837 22.8883C113.837 23.8924 113.837 24.8966 113.837 25.9007C113.837 26.2396 113.713 26.3274 113.405 26.3211C112.787 26.3211 112.218 26.3211 111.625 26.3211C111.137 26.3211 111.007 26.4529 111.007 26.9487C111.007 30.0866 111.007 33.2621 111.007 36.425C111.007 36.9836 110.909 37.2157 110.297 37.1844C109.284 37.1216 108.27 37.1404 107.257 37.1844C106.781 37.1844 106.639 37.0651 106.639 36.5568C106.676 34.9753 106.658 33.3687 106.658 31.7433Z" fill="#000033"/>
<path d="M53.1776 24.6079C53.6356 24.0597 54.1424 23.5556 54.6913 23.1017C55.2578 22.6759 55.9098 22.3826 56.6009 22.2426C57.2919 22.1027 58.0049 22.1196 58.6887 22.2921C59.0533 22.3675 59.1954 22.5055 59.0904 22.9197C58.7505 24.2502 58.4107 25.5806 58.108 26.9173C58.0215 27.3064 57.9103 27.3441 57.5643 27.1997C56.9175 26.9362 56.21 26.8665 55.5254 26.9989C54.2218 27.2311 53.3877 28.3482 53.3753 29.9171C53.3753 32.1199 53.3753 34.3101 53.3753 36.5317C53.3753 37.1153 53.2147 37.2409 52.6833 37.2158C51.5959 37.1718 50.5085 37.2158 49.4211 37.2158C49.0751 37.2158 48.9516 37.1279 48.9577 36.7576C48.9577 32.1555 48.9577 27.5658 48.9577 22.9887C48.9577 22.5997 49.0689 22.4679 49.4582 22.4804C50.5209 22.5055 51.5836 22.5055 52.6463 22.4804C53.0911 22.4804 53.1961 22.6373 53.1714 23.0452C53.1467 23.4531 53.1776 23.9427 53.1776 24.6079Z" fill="#000033"/>
<path d="M20.4198 26.5471C20.8276 26.5471 21.2539 26.3839 21.6555 26.6412C19.1161 30.4066 16.6633 34.2724 14.0004 37.9375C13.1674 39.1761 11.9657 40.1112 10.5715 40.6058C9.17733 41.1005 7.66379 41.1286 6.25268 40.6862C3.0708 39.8515 0.889846 37.7806 0.179328 34.4105C-0.0293322 33.401 -0.0271848 32.3583 0.185663 31.3498C0.398512 30.3412 0.817325 29.3892 1.41501 28.5553C4.35594 24.1665 7.3092 19.7902 10.2748 15.4265C11.0308 14.1895 12.1334 13.2101 13.4413 12.6141C14.7491 12.0181 16.2025 11.8326 17.6148 12.0816C19.0311 12.257 20.3752 12.8155 21.5065 13.6986C22.6379 14.5817 23.5151 15.7571 24.0465 17.1021C24.053 17.15 24.053 17.1986 24.0465 17.2465C23.9732 17.385 23.868 17.5035 23.7401 17.5919C23.6121 17.6804 23.465 17.7363 23.3113 17.7548C22.6859 16.0982 21.4893 14.7289 19.9441 13.9015C18.5956 13.0499 16.9847 12.7345 15.4212 13.016C13.8576 13.2975 12.4517 14.156 11.4734 15.4265C10.923 16.028 10.4478 16.6962 10.0586 17.4159C9.18745 18.6711 8.32864 19.9639 7.42659 21.2127C7.07442 21.7022 7.10533 21.9595 7.63049 22.3172C10.7938 24.4886 13.9263 26.7102 17.0711 28.8879C18.3994 29.8167 18.3995 29.8167 19.2892 28.4925C19.6104 28.0156 19.907 27.5449 20.253 27.068C20.3642 26.9173 20.5063 26.773 20.4198 26.5471ZM1.18023 31.4609C1.12726 31.5691 1.08583 31.6827 1.05665 31.7998C0.787902 33.5492 1.17427 35.3373 2.13957 36.8116C3.10487 38.2858 4.57902 39.3391 6.27123 39.7637C7.4854 40.1215 8.77616 40.1101 9.98401 39.7309C11.1919 39.3517 12.2639 38.6213 13.0675 37.63C14.6492 35.6217 15.959 33.4127 17.4294 31.3543C17.6828 30.9965 17.3244 30.9275 17.1576 30.8083C13.6544 28.3545 10.1389 25.9195 6.65429 23.4594C6.3083 23.2147 6.16002 23.2398 5.92524 23.5975C4.68956 25.4802 3.36738 27.3943 2.10081 29.2958C1.61417 29.9242 1.29692 30.6703 1.18023 31.4609Z" fill="#242321"/>
<path d="M125.199 31.2251C125.199 28.9972 125.199 26.7693 125.199 24.5414C125.199 24.0331 125.304 23.8386 125.817 23.8637C126.898 23.9076 127.986 23.895 129.073 23.8637C129.493 23.8637 129.617 23.9955 129.617 24.4159C129.617 28.9721 129.617 33.5303 129.617 38.0907C129.617 38.486 129.5 38.6115 129.11 38.599C128.004 38.599 126.892 38.5676 125.786 38.599C125.298 38.599 125.168 38.4672 125.168 37.9714C125.212 35.7373 125.199 33.478 125.199 31.2251Z" fill="#000033"/>
<path d="M122.147 33.7578C122.152 34.2335 122.064 34.7055 121.889 35.1465C121.713 35.5875 121.453 35.9888 121.124 36.3272C120.795 36.6656 120.403 36.9344 119.971 37.1182C119.539 37.3019 119.075 37.3969 118.607 37.3977C117.661 37.4061 116.75 37.0341 116.073 36.3628C115.396 35.6914 115.007 34.7753 114.993 33.8143C114.99 33.3328 115.08 32.8554 115.259 32.4094C115.437 31.9634 115.701 31.5577 116.035 31.2154C116.368 30.8732 116.765 30.6012 117.202 30.415C117.639 30.2288 118.108 30.1321 118.582 30.1305C119.051 30.1305 119.515 30.2244 119.948 30.4067C120.381 30.5891 120.774 30.8564 121.105 31.1933C121.437 31.5302 121.699 31.9301 121.878 32.3702C122.057 32.8102 122.148 33.2818 122.147 33.7578Z" fill="#000033"/>
<path d="M127.374 19.5999C125.669 19.5999 124.668 18.6585 124.755 17.1524C124.835 15.8972 125.811 15.0437 127.325 14.9872C129.178 14.9182 130.266 16.098 129.945 17.8176C129.734 18.9284 128.764 19.5999 127.374 19.5999Z" fill="#000033"/>
<path d="M19.9317 13.9266C21.4769 14.754 22.6735 16.1233 23.2989 17.7799C22.6811 18.7024 22.0076 19.5999 21.8902 20.7671C21.8162 21.181 21.7872 21.602 21.8038 22.0223C21.9026 22.7816 21.5999 22.9323 20.9141 22.9009C19.7216 22.8444 19.7155 22.9009 19.7155 24.0933C19.7155 24.8903 19.7155 25.6936 19.7155 26.4906C19.6722 26.6036 20.0305 26.6726 19.7649 26.7981C19.5166 26.9041 19.2496 26.9575 18.9802 26.955C16.9413 27.0428 15.2731 26.1329 13.7038 24.9593C12.5052 24.0556 11.3004 23.1519 10.6579 21.6771C10.04 20.3028 10.0833 18.8656 10.04 17.4222C10.4292 16.704 10.9022 16.036 11.4487 15.4328C11.4055 16.0604 11.9615 16.1169 12.2952 16.3051C12.6288 16.4934 12.7277 16.0102 12.8759 15.8031C14.2414 13.9204 16.0578 13.4246 18.1276 14.3597C19.215 14.8492 19.215 14.8492 19.9317 13.9266Z" fill="#FF0000"/>
<path d="M10.0583 17.4285C10.0583 18.8719 10.0583 20.309 10.6762 21.6834C11.294 23.1582 12.5297 24.0619 13.7221 24.9656C15.2791 26.1391 16.9596 27.0491 18.9985 26.9613C19.2678 26.9638 19.5349 26.9104 19.7832 26.8044C20.0488 26.6789 19.6905 26.6098 19.7337 26.4969L20.4319 26.5471C20.5184 26.773 20.3763 26.9173 20.2651 27.0805C19.9376 27.5575 19.6472 28.0281 19.3012 28.5051C18.4301 29.8606 18.4301 29.8606 17.0708 28.9005C13.926 26.7102 10.7936 24.5075 7.63023 22.3298C7.10507 21.9721 7.07417 21.7022 7.42634 21.2253C8.32838 19.9764 9.16248 18.6962 10.0583 17.4285Z" fill="#C12D2D"/>
<path d="M1.18018 31.4609C1.27898 30.6636 1.58142 29.9063 2.0575 29.2644C3.29318 27.3817 4.62154 25.499 5.88194 23.5661C6.11672 23.2084 6.265 23.1833 6.61099 23.428C10.1141 25.8881 13.6297 28.3231 17.1143 30.7769C17.2811 30.8961 17.6395 30.9652 17.3861 31.3229C15.9157 33.4127 14.6059 35.6217 13.0242 37.5986C12.8079 37.6362 12.5855 37.655 12.4063 37.7115C10.8056 38.2197 9.14056 38.4882 7.46361 38.5085C4.3744 38.4081 1.90305 36.676 1.6003 33.1303C1.63957 32.5425 1.49233 31.9574 1.18018 31.4609Z" fill="#FDFDFD"/>
<path d="M1.1802 31.4609C1.50319 31.9647 1.65508 32.562 1.6127 33.1616C1.94015 36.7074 4.36826 38.4395 7.476 38.5399C9.15295 38.5195 10.818 38.251 12.4187 37.7429C12.6288 37.6864 12.8512 37.6676 13.0366 37.63C12.233 38.6213 11.161 39.3517 9.9531 39.7309C8.74525 40.1101 7.45448 40.1215 6.24032 39.7637C4.54811 39.3391 3.07396 38.2858 2.10866 36.8116C1.14336 35.3373 0.756989 33.5492 1.02574 31.7998C1.06478 31.6814 1.11658 31.5678 1.1802 31.4609Z" fill="#DAD4D8"/>
<path d="M19.9317 13.9266C19.215 14.8492 19.215 14.8492 18.1461 14.3659C16.0763 13.4309 14.2599 13.9392 12.8944 15.8093C12.7462 16.0164 12.6473 16.4997 12.3137 16.3114C11.98 16.1231 11.424 16.0478 11.4672 15.4391C12.4478 14.1734 13.8533 13.3193 15.415 13.0403C16.9766 12.7612 18.5847 13.0768 19.9317 13.9266Z" fill="#FBF6F6"/>
<path d="M20.4198 26.5471C20.8276 26.5471 21.2539 26.3839 21.6555 26.6412C19.1161 30.4066 16.6633 34.2724 14.0004 37.9374C13.1674 39.1761 11.9657 40.1112 10.5715 40.6058C9.17733 41.1005 7.66379 41.1286 6.25268 40.6862C3.0708 39.8515 0.889846 37.7806 0.179328 34.4105C-0.0293322 33.401 -0.0271848 32.3583 0.185663 31.3498C0.398512 30.3412 0.817325 29.3892 1.41501 28.5553C4.35594 24.1665 7.3092 19.7902 10.2748 15.4265C11.0308 14.1894 12.1334 13.2101 13.4413 12.6141C14.7491 12.0181 16.2025 11.8326 17.6148 12.0816C19.0311 12.257 20.3752 12.8155 21.5065 13.6986C22.6379 14.5817 23.5151 15.7571 24.0465 17.1021C24.053 17.15 24.053 17.1986 24.0465 17.2465C23.9732 17.385 23.868 17.5035 23.7401 17.5919C23.6121 17.6804 23.465 17.7363 23.3113 17.7548C22.6859 16.0982 21.4893 14.7288 19.9441 13.9015C18.5956 13.0499 16.9847 12.7345 15.4212 13.016C13.8576 13.2975 12.4517 14.156 11.4734 15.4265C10.923 16.028 10.4478 16.6961 10.0586 17.4159C9.18745 18.6711 8.32864 19.9639 7.42659 21.2127C7.07442 21.7022 7.10533 21.9595 7.63049 22.3172C10.7938 24.4886 13.9263 26.7102 17.0711 28.8879C18.3994 29.8167 18.3995 29.8167 19.2892 28.4925C19.6104 28.0156 19.907 27.5449 20.253 27.0679C20.3642 26.9173 20.5063 26.773 20.4198 26.5471ZM1.18023 31.4609C1.12726 31.5691 1.08583 31.6827 1.05665 31.7998C0.787902 33.5492 1.17427 35.3373 2.13957 36.8115C3.10487 38.2858 4.57902 39.3391 6.27123 39.7637C7.4854 40.1215 8.77616 40.1101 9.98401 39.7309C11.1919 39.3517 12.2639 38.6213 13.0675 37.6299C14.6492 35.6217 15.959 33.4127 17.4294 31.3542C17.6828 30.9965 17.3244 30.9275 17.1576 30.8083C13.6544 28.3545 10.1389 25.9195 6.65429 23.4594C6.3083 23.2147 6.16002 23.2398 5.92524 23.5975C4.68956 25.4802 3.36738 27.3943 2.10081 29.2958C1.61417 29.9242 1.29692 30.6703 1.18023 31.4609Z" fill="#242321"/>
<path d="M19.9317 13.9266C21.4769 14.754 22.6735 16.1233 23.2989 17.7799C22.6811 18.7024 22.0076 19.5999 21.8902 20.7671C21.8162 21.181 21.7872 21.602 21.8038 22.0223C21.9026 22.7816 21.5999 22.9323 20.9141 22.9009C19.7216 22.8444 19.7155 22.9009 19.7155 24.0933C19.7155 24.8903 19.7155 25.6936 19.7155 26.4906C19.6722 26.6036 20.0305 26.6726 19.7649 26.7981C19.5166 26.9041 19.2496 26.9575 18.9802 26.955C16.9413 27.0428 15.2731 26.1329 13.7038 24.9593C12.5052 24.0556 11.3004 23.1519 10.6579 21.6771C10.04 20.3028 10.0833 18.8656 10.04 17.4222C10.4292 16.704 10.9022 16.036 11.4487 15.4328C11.4055 16.0604 11.9615 16.1169 12.2952 16.3051C12.6288 16.4934 12.7277 16.0102 12.8759 15.8031C14.2414 13.9204 16.0578 13.4246 18.1276 14.3597C19.215 14.8492 19.215 14.8492 19.9317 13.9266Z" fill="#FF0000"/>
<path d="M10.0583 17.4285C10.0583 18.8719 10.0583 20.309 10.6762 21.6834C11.294 23.1582 12.5297 24.0619 13.7221 24.9656C15.2791 26.1391 16.9596 27.0491 18.9985 26.9613C19.2678 26.9638 19.5349 26.9104 19.7832 26.8044C20.0488 26.6788 19.6905 26.6098 19.7337 26.4968L20.4319 26.5471C20.5184 26.773 20.3763 26.9173 20.2651 27.0805C19.9376 27.5574 19.6472 28.0281 19.3012 28.5051C18.4301 29.8606 18.4301 29.8606 17.0708 28.9004C13.926 26.7102 10.7936 24.5075 7.63023 22.3298C7.10507 21.9721 7.07417 21.7022 7.42634 21.2253C8.32838 19.9764 9.16248 18.6962 10.0583 17.4285Z" fill="#C12D2D"/>
<path d="M1.18018 31.4609C1.27898 30.6636 1.58142 29.9063 2.0575 29.2645C3.29318 27.3817 4.62154 25.499 5.88194 23.5661C6.11672 23.2084 6.265 23.1833 6.61099 23.4281C10.1141 25.8881 13.6297 28.3231 17.1143 30.7769C17.2811 30.8961 17.6395 30.9652 17.3861 31.3229C15.9157 33.4127 14.6059 35.6217 13.0242 37.5986C12.8079 37.6362 12.5855 37.6551 12.4063 37.7115C10.8056 38.2197 9.14056 38.4882 7.46361 38.5086C4.3744 38.4081 1.90305 36.6761 1.6003 33.1303C1.63957 32.5425 1.49233 31.9575 1.18018 31.4609Z" fill="#FDFDFD"/>
<path d="M1.1802 31.4609C1.50319 31.9647 1.65508 32.562 1.6127 33.1616C1.94015 36.7074 4.36826 38.4395 7.476 38.5399C9.15295 38.5195 10.818 38.251 12.4187 37.7429C12.6288 37.6864 12.8512 37.6676 13.0366 37.63C12.233 38.6213 11.161 39.3517 9.9531 39.7309C8.74525 40.1101 7.45448 40.1215 6.24032 39.7637C4.54811 39.3391 3.07396 38.2858 2.10866 36.8116C1.14336 35.3373 0.756989 33.5492 1.02574 31.7998C1.06478 31.6814 1.11658 31.5678 1.1802 31.4609Z" fill="#DAD4D8"/>
<path d="M19.9317 13.9266C19.215 14.8492 19.215 14.8492 18.1461 14.3659C16.0763 13.4309 14.2599 13.9392 12.8944 15.8093C12.7462 16.0164 12.6473 16.4997 12.3137 16.3114C11.98 16.1231 11.424 16.0478 11.4672 15.4391C12.4478 14.1734 13.8533 13.3193 15.415 13.0403C16.9766 12.7612 18.5847 13.0768 19.9317 13.9266Z" fill="#FBF6F6"/>
<path d="M1.1802 31.4609C1.50319 31.9647 1.65508 32.562 1.6127 33.1616C1.94015 36.7074 4.36826 38.4395 7.476 38.5399C9.15295 38.5195 10.818 38.251 12.4187 37.7429C12.6288 37.6864 12.8512 37.6676 13.0366 37.63C12.233 38.6213 11.161 39.3517 9.9531 39.7309C8.74525 40.1101 7.45448 40.1215 6.24032 39.7637C4.54811 39.3391 3.07396 38.2858 2.10866 36.8116C1.14336 35.3373 0.756989 33.5492 1.02574 31.7998C1.06478 31.6814 1.11658 31.5678 1.1802 31.4609Z" fill="#DAD4D8"/>
<path d="M19.9317 13.9266C19.215 14.8492 19.215 14.8492 18.1461 14.3659C16.0763 13.4309 14.2599 13.9392 12.8944 15.8093C12.7462 16.0164 12.6473 16.4997 12.3137 16.3114C11.98 16.1231 11.424 16.0478 11.4672 15.4391C12.4478 14.1734 13.8533 13.3193 15.415 13.0403C16.9766 12.7612 18.5847 13.0768 19.9317 13.9266Z" fill="#FBF6F6"/>
<path d="M20.4198 26.5471C20.8276 26.5471 21.2539 26.3839 21.6555 26.6412C19.1161 30.4066 16.6633 34.2724 14.0004 37.9374C13.1674 39.1761 11.9657 40.1112 10.5715 40.6058C9.17733 41.1005 7.66379 41.1286 6.25268 40.6862C3.0708 39.8515 0.889846 37.7806 0.179328 34.4105C-0.0293322 33.401 -0.0271848 32.3583 0.185663 31.3498C0.398512 30.3412 0.817325 29.3892 1.41501 28.5553C4.35594 24.1665 7.3092 19.7902 10.2748 15.4265C11.0308 14.1894 12.1334 13.2101 13.4413 12.6141C14.7491 12.0181 16.2025 11.8326 17.6148 12.0816C19.0311 12.257 20.3752 12.8155 21.5065 13.6986C22.6379 14.5817 23.5151 15.7571 24.0465 17.1021C24.053 17.15 24.053 17.1986 24.0465 17.2465C23.9732 17.385 23.868 17.5035 23.7401 17.5919C23.6121 17.6804 23.465 17.7363 23.3113 17.7548C22.6859 16.0982 21.4893 14.7288 19.9441 13.9015C18.5956 13.0499 16.9847 12.7345 15.4212 13.016C13.8576 13.2975 12.4517 14.156 11.4734 15.4265C10.923 16.028 10.4478 16.6961 10.0586 17.4159C9.18745 18.6711 8.32864 19.9639 7.42659 21.2127C7.07442 21.7022 7.10533 21.9595 7.63049 22.3172C10.7938 24.4886 13.9263 26.7102 17.0711 28.8879C18.3994 29.8167 18.3995 29.8167 19.2892 28.4925C19.6104 28.0156 19.907 27.5449 20.253 27.0679C20.3642 26.9173 20.5063 26.773 20.4198 26.5471ZM1.18023 31.4609C1.12726 31.5691 1.08583 31.6827 1.05665 31.7998C0.787902 33.5492 1.17427 35.3373 2.13957 36.8115C3.10487 38.2858 4.57902 39.3391 6.27123 39.7637C7.4854 40.1215 8.77616 40.1101 9.98401 39.7309C11.1919 39.3517 12.2639 38.6213 13.0675 37.6299C14.6492 35.6217 15.959 33.4127 17.4294 31.3542C17.6828 30.9965 17.3244 30.9275 17.1576 30.8083C13.6544 28.3545 10.1389 25.9195 6.65429 23.4594C6.3083 23.2147 6.16002 23.2398 5.92524 23.5975C4.68956 25.4802 3.36738 27.3943 2.10081 29.2958C1.61417 29.9242 1.29692 30.6703 1.18023 31.4609Z" fill="#242321"/>
<path d="M19.9317 13.9266C21.4769 14.754 22.6735 16.1233 23.2989 17.7799C22.6811 18.7024 22.0076 19.5999 21.8902 20.7671C21.8162 21.181 21.7872 21.602 21.8038 22.0223C21.9026 22.7816 21.5999 22.9323 20.9141 22.9009C19.7216 22.8444 19.7155 22.9009 19.7155 24.0933C19.7155 24.8903 19.7155 25.6936 19.7155 26.4906C19.6722 26.6036 20.0305 26.6726 19.7649 26.7981C19.5166 26.9041 19.2496 26.9575 18.9802 26.955C16.9413 27.0428 15.2731 26.1329 13.7038 24.9593C12.5052 24.0556 11.3004 23.1519 10.6579 21.6771C10.04 20.3028 10.0833 18.8656 10.04 17.4222C10.4292 16.704 10.9022 16.036 11.4487 15.4328C11.4055 16.0604 11.9615 16.1169 12.2952 16.3051C12.6288 16.4934 12.7277 16.0102 12.8759 15.8031C14.2414 13.9204 16.0578 13.4246 18.1276 14.3597C19.215 14.8492 19.215 14.8492 19.9317 13.9266Z" fill="#000033"/>
<path d="M10.0583 17.4285C10.0583 18.8719 10.0583 20.309 10.6762 21.6834C11.294 23.1582 12.5297 24.0619 13.7221 24.9656C15.2791 26.1391 16.9596 27.0491 18.9985 26.9613C19.2678 26.9638 19.5349 26.9104 19.7832 26.8044C20.0488 26.6788 19.6905 26.6098 19.7337 26.4968L20.4319 26.5471C20.5184 26.773 20.3763 26.9173 20.2651 27.0805C19.9376 27.5574 19.6472 28.0281 19.3012 28.5051C18.4301 29.8606 18.4301 29.8606 17.0708 28.9004C13.926 26.7102 10.7936 24.5075 7.63023 22.3298C7.10507 21.9721 7.07417 21.7022 7.42634 21.2253C8.32838 19.9764 9.16248 18.6962 10.0583 17.4285Z" fill="#010128"/>
<path d="M1.18018 31.4609C1.27898 30.6636 1.58142 29.9063 2.0575 29.2645C3.29318 27.3817 4.62154 25.499 5.88194 23.5661C6.11672 23.2084 6.265 23.1833 6.61099 23.4281C10.1141 25.8881 13.6297 28.3231 17.1143 30.7769C17.2811 30.8961 17.6395 30.9652 17.3861 31.3229C15.9157 33.4127 14.6059 35.6217 13.0242 37.5986C12.8079 37.6362 12.5855 37.6551 12.4063 37.7115C10.8056 38.2197 9.14056 38.4882 7.46361 38.5086C4.3744 38.4081 1.90305 36.6761 1.6003 33.1303C1.63957 32.5425 1.49233 31.9575 1.18018 31.4609Z" fill="#FDFDFD"/>
<path d="M1.1802 31.4609C1.50319 31.9647 1.65508 32.562 1.6127 33.1616C1.94015 36.7074 4.36826 38.4395 7.476 38.5399C9.15295 38.5195 10.818 38.251 12.4187 37.7429C12.6288 37.6864 12.8512 37.6676 13.0366 37.63C12.233 38.6213 11.161 39.3517 9.9531 39.7309C8.74525 40.1101 7.45448 40.1215 6.24032 39.7637C4.54811 39.3391 3.07396 38.2858 2.10866 36.8116C1.14336 35.3373 0.756989 33.5492 1.02574 31.7998C1.06478 31.6814 1.11658 31.5678 1.1802 31.4609Z" fill="#DAD4D8"/>
<path d="M19.9317 13.9266C19.215 14.8492 19.215 14.8492 18.1461 14.3659C16.0763 13.4309 14.2599 13.9392 12.8944 15.8093C12.7462 16.0164 12.6473 16.4997 12.3137 16.3114C11.98 16.1231 11.424 16.0478 11.4672 15.4391C12.4478 14.1734 13.8533 13.3193 15.415 13.0403C16.9766 12.7612 18.5847 13.0768 19.9317 13.9266Z" fill="#FBF6F6"/>
</g>
<path d="M54.0281 16.16C53.2067 16.16 52.4707 15.968 51.8201 15.584C51.1694 15.2 50.6521 14.6773 50.2681 14.016C49.8947 13.344 49.7081 12.5867 49.7081 11.744C49.7081 10.9013 49.8947 10.1493 50.2681 9.488C50.6521 8.816 51.1694 8.288 51.8201 7.904C52.4707 7.52 53.2067 7.328 54.0281 7.328C54.7854 7.328 55.4787 7.46133 56.1081 7.728C56.7481 7.99467 57.2547 8.368 57.6281 8.848L56.2361 10.512C56.0867 10.3413 55.9107 10.1813 55.7081 10.032C55.5054 9.88267 55.2814 9.76533 55.0361 9.68C54.7907 9.59467 54.5347 9.552 54.2681 9.552C53.8627 9.552 53.5054 9.648 53.1961 9.84C52.8867 10.0213 52.6467 10.2773 52.4761 10.608C52.3054 10.9387 52.2201 11.3173 52.2201 11.744C52.2201 12.1493 52.3054 12.5173 52.4761 12.848C52.6574 13.1787 52.9027 13.44 53.2121 13.632C53.5214 13.824 53.8734 13.92 54.2681 13.92C54.5454 13.92 54.8014 13.888 55.0361 13.824C55.2707 13.7493 55.4841 13.6427 55.6761 13.504C55.8787 13.3653 56.0654 13.1947 56.2361 12.992L57.6121 14.672C57.2494 15.1307 56.7427 15.4933 56.0921 15.76C55.4521 16.0267 54.7641 16.16 54.0281 16.16ZM59.0348 16V4.16H61.5948V16H59.0348ZM66.6961 16.176C66.0667 16.176 65.5281 16.0427 65.0801 15.776C64.6427 15.4987 64.3014 15.104 64.0561 14.592C63.8214 14.08 63.7041 13.4667 63.7041 12.752V7.504H66.2801V12.4C66.2801 12.7413 66.3334 13.0347 66.4401 13.28C66.5467 13.5253 66.7067 13.7173 66.9201 13.856C67.1334 13.984 67.3894 14.048 67.6881 14.048C67.9121 14.048 68.1147 14.0107 68.2961 13.936C68.4881 13.8613 68.6481 13.76 68.7761 13.632C68.9147 13.4933 69.0214 13.3387 69.0961 13.168C69.1707 12.9867 69.2081 12.7893 69.2081 12.576V7.504H71.7841V16H69.3681L69.2561 14.256L69.7361 14.064C69.6081 14.4693 69.3947 14.832 69.0961 15.152C68.7974 15.4613 68.4401 15.712 68.0241 15.904C67.6081 16.0853 67.1654 16.176 66.6961 16.176ZM79.1697 16.176C78.7857 16.176 78.4177 16.1227 78.0657 16.016C77.7137 15.9093 77.3937 15.7653 77.1057 15.584C76.8284 15.4027 76.5937 15.1947 76.4017 14.96C76.2204 14.7147 76.0977 14.464 76.0337 14.208L76.5937 14.016L76.4497 15.984H74.0657V4.16H76.6417V9.536L76.1137 9.344C76.1777 9.06667 76.3004 8.81067 76.4817 8.576C76.663 8.33067 76.8924 8.11733 77.1697 7.936C77.447 7.744 77.751 7.59467 78.0817 7.488C78.4124 7.38133 78.7537 7.328 79.1057 7.328C79.8417 7.328 80.4924 7.52 81.0577 7.904C81.6337 8.27733 82.087 8.8 82.4177 9.472C82.7484 10.1333 82.9137 10.8907 82.9137 11.744C82.9137 12.608 82.7484 13.376 82.4177 14.048C82.0977 14.7093 81.655 15.232 81.0897 15.616C80.5244 15.9893 79.8844 16.176 79.1697 16.176ZM78.4977 14.016C78.8817 14.016 79.2177 13.92 79.5057 13.728C79.7937 13.536 80.0124 13.2747 80.1617 12.944C80.3217 12.6027 80.4017 12.2027 80.4017 11.744C80.4017 11.296 80.3217 10.9013 80.1617 10.56C80.0124 10.2187 79.7937 9.95733 79.5057 9.776C79.2177 9.59467 78.8817 9.504 78.4977 9.504C78.103 9.504 77.7617 9.59467 77.4737 9.776C77.1857 9.95733 76.9617 10.2187 76.8017 10.56C76.6417 10.9013 76.5617 11.296 76.5617 11.744C76.5617 12.2027 76.6417 12.6027 76.8017 12.944C76.9617 13.2747 77.1857 13.536 77.4737 13.728C77.7617 13.92 78.103 14.016 78.4977 14.016ZM88.6449 16.16C87.7063 16.16 86.8903 15.9733 86.1969 15.6C85.5036 15.216 84.9649 14.6987 84.5809 14.048C84.1969 13.3867 84.0049 12.6347 84.0049 11.792C84.0049 11.1413 84.1116 10.544 84.3249 10C84.5383 9.456 84.8369 8.98667 85.2209 8.592C85.6049 8.18667 86.0583 7.87733 86.5809 7.664C87.1143 7.44 87.6956 7.328 88.3249 7.328C88.9223 7.328 89.4663 7.43467 89.9569 7.648C90.4583 7.86133 90.8903 8.16 91.2529 8.544C91.6156 8.928 91.8929 9.38133 92.0849 9.904C92.2769 10.4267 92.3623 10.9973 92.3409 11.616L92.3249 12.304H85.5569L85.1889 10.864H90.2449L89.9729 11.168V10.848C89.9516 10.5813 89.8663 10.3467 89.7169 10.144C89.5783 9.93067 89.3916 9.76533 89.1569 9.648C88.9223 9.53067 88.6556 9.472 88.3569 9.472C87.9409 9.472 87.5836 9.55733 87.2849 9.728C86.9969 9.888 86.7783 10.128 86.6289 10.448C86.4796 10.7573 86.4049 11.1413 86.4049 11.6C86.4049 12.0693 86.5009 12.48 86.6929 12.832C86.8956 13.1733 87.1836 13.44 87.5569 13.632C87.9409 13.824 88.3943 13.92 88.9169 13.92C89.2796 13.92 89.5996 13.8667 89.8769 13.76C90.1649 13.6533 90.4743 13.472 90.8049 13.216L92.0049 14.912C91.6743 15.2 91.3223 15.4347 90.9489 15.616C90.5756 15.7973 90.1916 15.9307 89.7969 16.016C89.4129 16.112 89.0289 16.16 88.6449 16.16Z" fill="#000033"/>
<defs>
<clipPath id="clip0_653_2">
<rect width="130" height="29" fill="white" transform="translate(0 12)"/>
</clipPath>
</defs>
</svg>
