<svg width="58" height="61" viewBox="0 0 58 61" fill="none" xmlns="http://www.w3.org/2000/svg">
<path d="M19.0428 42.3301C23.7319 47.0193 35.1358 43.2179 44.5142 33.8395C53.8926 24.4611 57.694 13.0571 53.0048 8.36795" stroke="white" stroke-width="4" stroke-linecap="round" stroke-linejoin="round"/>
<path d="M32.8402 5.18394L34.9628 7.30659" stroke="white" stroke-width="4" stroke-linecap="round" stroke-linejoin="round"/>
<path d="M25.4106 12.6133L27.5332 14.7359" stroke="white" stroke-width="4" stroke-linecap="round" stroke-linejoin="round"/>
<path d="M19.0431 21.1037L21.1657 23.2263" stroke="white" stroke-width="4" stroke-linecap="round" stroke-linejoin="round"/>
<path d="M16.9203 31.7169L19.0429 33.8395" stroke="white" stroke-width="4" stroke-linecap="round" stroke-linejoin="round"/>
<path d="M44.5144 2L46.637 4.12262" stroke="white" stroke-width="4" stroke-linecap="round" stroke-linejoin="round"/>
<path d="M42.3916 14.7359L46.637 18.9811" stroke="white" stroke-width="4" stroke-linecap="round" stroke-linejoin="round"/>
<path d="M34.9625 22.165L39.2077 26.4104" stroke="white" stroke-width="4" stroke-linecap="round" stroke-linejoin="round"/>
<path d="M26.4722 28.5328L30.7174 32.7782" stroke="white" stroke-width="4" stroke-linecap="round" stroke-linejoin="round"/>
<path d="M19.0424 48.6974C20.8008 46.939 20.8008 44.088 19.0424 42.3295C17.2839 40.5711 14.4329 40.5711 12.6745 42.3295L4.18396 50.82C2.42551 52.5785 2.42551 55.4295 4.18396 57.1879C5.9424 58.9464 8.79341 58.9464 10.5519 57.1879L19.0424 48.6974Z" stroke="white" stroke-width="4" stroke-linecap="round" stroke-linejoin="round"/>
</svg>
