<svg width="50" height="68" viewBox="0 0 50 68" fill="none" xmlns="http://www.w3.org/2000/svg">
<g clip-path="url(#clip0_72_52)">
<path d="M14.2253 23.0098C17.4792 19.6908 17.4792 14.3079 14.2253 10.9889C10.9713 7.66992 5.694 7.66992 2.44009 10.9889C-0.813812 14.3079 -0.813812 19.6908 2.44009 23.0098C5.6953 26.3301 10.9713 26.3301 14.2253 23.0098ZM47.5586 44.9889C44.3047 41.6699 39.0273 41.6699 35.7734 44.9889C32.5195 48.3079 32.5195 53.6908 35.7734 57.0098C39.0273 60.3287 44.3047 60.3287 47.5586 57.0098C50.8138 53.6908 50.8138 48.3092 47.5586 44.9889ZM47.306 14.2521L44.3607 11.2479C42.7331 9.58773 40.095 9.58773 38.4687 11.2479L2.694 47.7381C1.0664 49.3983 1.0664 52.0891 2.694 53.7479L5.63931 56.7521C7.26692 58.4123 9.90494 58.4123 11.5312 56.7521L47.306 20.2619C48.9336 18.603 48.9336 15.9123 47.306 14.2521Z" fill="#F8F8F8"/>
</g>
<defs>
<clipPath id="clip0_72_52">
<rect width="50" height="68" fill="white"/>
</clipPath>
</defs>
</svg>


