<?xml version="1.0" encoding="utf-8"?>
<!-- Generator: Adobe Illustrator 26.0.3, SVG Export Plug-In . SVG Version: 6.00 Build 0)  -->
<svg version="1.1" id="Camada_1" xmlns="http://www.w3.org/2000/svg" xmlns:xlink="http://www.w3.org/1999/xlink" x="0px" y="0px"
	 viewBox="0 0 311.2 335.2" style="enable-background:new 0 0 311.2 335.2;" xml:space="preserve">
<style type="text/css">
	.st0{fill:#201F1D;}
	.st1{fill:#FEFEFE;}
	.st2{fill:#FE0000;}
	.st3{fill:#EB0808;}
	.st4{fill:#DCD7DA;}
	.st5{fill:#FCFAFA;}
</style>
<path class="st0" d="M294.5,92.1c0,19.9-5.3,36.2-15.4,51c-15.5,22.7-31.1,45.3-46.6,67.9c-18.4,26.9-36.4,54-55.2,80.5
	c-27.3,38.3-78.8,47-118.1,21c-20.1-13.3-34.3-30.6-39.9-54.2c-5.9-25-1.4-48.2,13.1-69.4c15.9-23.3,32-46.5,47.9-69.8
	c17.4-25.4,34.6-51,52.2-76.3C160.9,1.6,213.9-7.5,255,21.4c20.5,14.4,33.7,33.1,38.3,57.8C294.1,83.4,294.6,87.8,294.5,92.1z
	 M144.9,44.5c-5.1,6.6-9.9,13.4-14.3,20.6c-0.3,0.2-0.6,0.5-0.8,0.7c-10.6,15.5-21.2,31-31.9,46.5c-1.6,2.3-1,3.1,1,4.5
	c22.5,15.3,45,30.7,67.4,46.2c18.7,12.8,37.3,25.6,56,38.4c1.5,1.1,2.4,1.7,3.8-0.3c7.7-11.5,15.5-22.9,23.3-34.3
	c8-11.6,16.2-23,23.8-34.8c7.1-11.1,10.8-24.1,10.5-37.2c-0.4-30.9-15-53.4-41.7-68.5c-0.6-0.5-1.2-0.9-1.8-1.3
	c-26.4-13.7-52.3-12.7-77.7,2.9C155.5,32.1,150.1,38.3,144.9,44.5z M30.7,217.6c-0.2,0.7-0.6,1.4-0.8,2.1
	c-7.5,28.2,3.5,59.8,26.6,77.8c19.9,15.5,41.8,22.8,66.9,17.4c17.1-3.7,31.4-12.2,42.2-26.2c6-7,10.7-14.9,15.9-22.5
	c11.2-16.2,22.4-32.5,33.6-48.9l-12.4-8.5c-37.8-26-75.6-51.9-113.3-77.9c-2.4-1.6-3.2-1.2-4.8,1c-14.8,21.8-29.8,43.4-44.6,65.2
	C35.7,203.3,32.5,210.3,30.7,217.6z"/>
<path class="st1" d="M30.7,217.6c1.9-7.4,5-14.3,9.4-20.6c14.8-21.8,29.8-43.4,44.6-65.2c1.5-2.2,2.4-2.6,4.8-1
	c37.7,26,75.5,52,113.3,77.9l12.4,8.6c-11.2,16.4-22.3,32.7-33.6,48.9c-5.2,7.5-10,15.5-15.9,22.5c-7.8,2.2-15.5,4.5-23.3,6.5
	c-18.6,4.6-37.3,6.8-56.4,3.3c-20.2-3.7-35.2-14.6-44.5-33.2c-5.6-11.1-6.2-23.3-8.1-35.3C32.6,225.8,33,221.4,30.7,217.6z"/>
<path class="st2" d="M242,26.2c26.6,15.1,41.3,37.6,41.7,68.5c0.2,13.2-3.4,26.2-10.5,37.2c-7.6,11.8-15.8,23.2-23.8,34.8
	c-1.1,0-2.2,0.3-3.2,0.9c-4.3,1.7-8.6,3.2-13.2,3.6c-16.7,1.3-31.7-4-46.1-12c-11-6.2-20.6-14.2-30.3-22c-4.3-3.4-8.2-7.2-11.7-11.4
	c-6.8-8.8-11.1-19.2-12.6-30.2c-1.1-7.4-2.6-14.8-1.1-22.5c0.5-2.5,0.8-5.5-0.6-8c4.4-7.1,9.2-14,14.3-20.6
	c-0.2,1.1,0.2,1.7,1.2,2.3c3.1,2,6.3,4,9.2,6.3c1.8,1.3,2.6,1,3.8-0.7c1.9-2.9,4-5.7,6.1-8.5c10.1-13.2,23.5-18.9,40.1-17.3
	c9.6,1,18.1,4.8,26.2,9.7c1.7,1,2.3,1,3.4-0.5C237.1,32.5,239.6,29.4,242,26.2z"/>
<path class="st3" d="M130.6,65.1c1.4,2.6,1.2,5.5,0.6,8c-1.5,7.6,0,15.1,1.1,22.5c1.5,11,5.9,21.4,12.6,30.2
	c3.4,4.3,7.4,8.1,11.7,11.5c9.7,7.9,19.3,15.9,30.3,22c14.3,8,29.3,13.3,46.1,12c4.6-0.4,8.9-1.9,13.2-3.6c1-0.6,2.1-0.9,3.2-0.9
	c-7.8,11.4-15.6,22.8-23.2,34.3c-1.4,2-2.2,1.4-3.8,0.3c-18.7-12.9-37.3-25.7-56-38.4c-22.5-15.4-44.9-30.8-67.4-46.2
	c-2-1.4-2.6-2.2-1-4.5c10.7-15.4,21.3-31,31.9-46.5C130.1,65.5,130.3,65.3,130.6,65.1z"/>
<path class="st4" d="M30.7,217.6c2.3,3.8,2,8.2,2.6,12.4c1.9,12,2.5,24.2,8.1,35.3c9.3,18.6,24.3,29.4,44.5,33.2
	c19,3.5,37.8,1.3,56.4-3.3c7.8-2,15.5-4.3,23.3-6.5c-10.8,14-25.1,22.5-42.2,26.2c-25.1,5.5-47-1.9-66.9-17.4
	c-23.2-18-34.1-49.5-26.6-77.8C30.1,219,30.4,218.3,30.7,217.6z"/>
<path class="st5" d="M242,26.2c-2.4,3.2-4.9,6.3-7.1,9.5c-1.1,1.6-1.7,1.6-3.4,0.5c-8.1-4.9-16.7-8.7-26.2-9.7
	c-16.6-1.6-29.9,4.1-40.1,17.3c-2.1,2.8-4.2,5.5-6.1,8.5c-1.1,1.8-2,2.1-3.8,0.7c-3-2.2-6.1-4.3-9.2-6.3c-1-0.6-1.5-1.2-1.2-2.3
	c5.3-6.2,10.6-12.4,17.7-16.7c25.3-15.6,51.2-16.5,77.7-2.9C240.9,25.3,241.5,25.8,242,26.2z"/>
</svg>
