<svg width="70" height="70" viewBox="0 0 70 70" fill="none" xmlns="http://www.w3.org/2000/svg">
<path fill-rule="evenodd" clip-rule="evenodd" d="M35 52.5L40.7896 12.6263C40.8706 12.1468 40.8367 11.655 40.6904 11.1913C40.5398 10.7175 40.2835 10.2842 39.9408 9.92396C39.5851 9.55006 39.1548 9.25495 38.6779 9.05771C38.188 8.85405 37.6626 8.74946 37.1321 8.75H12.4542C11.9204 8.75 11.3925 8.855 10.9083 9.05625C10.4308 9.25378 10 9.5494 9.64395 9.92396C9.30132 10.2842 9.045 10.7175 8.89437 11.1913C8.74854 11.6579 8.71354 12.1479 8.79375 12.6263L14.5833 52.5V56.1458C14.5833 57.4802 15.0923 58.7723 16.0154 59.7333C16.4704 60.211 17.0174 60.5916 17.6234 60.8523C18.2295 61.1129 18.882 61.2482 19.5417 61.25H30.0417C31.376 61.25 32.6433 60.6958 33.5679 59.7333C34.4898 58.7668 35.0029 57.4816 35 56.1458V52.5ZM26.3842 22.33C26.3842 21.9432 26.2305 21.5723 25.957 21.2988C25.6835 21.0253 25.3126 20.8717 24.9258 20.8717C24.5391 20.8717 24.1681 21.0253 23.8946 21.2988C23.6211 21.5723 23.4675 21.9432 23.4675 22.33V27.4823H18.1942C17.8074 27.4823 17.4365 27.6359 17.163 27.9094C16.8895 28.1829 16.7358 28.5539 16.7358 28.9406C16.7358 29.3274 16.8895 29.6983 17.163 29.9718C17.4365 30.2453 17.8074 30.399 18.1942 30.399H23.4675V35.5513C23.4675 35.938 23.6211 36.309 23.8946 36.5824C24.1681 36.8559 24.5391 37.0096 24.9258 37.0096C25.3126 37.0096 25.6835 36.8559 25.957 36.5824C26.2305 36.309 26.3842 35.938 26.3842 35.5513V30.399H31.656C32.0428 30.399 32.4137 30.2453 32.6872 29.9718C32.9607 29.6983 33.1144 29.3274 33.1144 28.9406C33.1144 28.5539 32.9607 28.1829 32.6872 27.9094C32.4137 27.6359 32.0428 27.4823 31.656 27.4823H26.3842V22.33ZM31.465 57.7135C31.8544 57.3081 32.0833 56.7452 32.0833 56.1458V53.9583H17.5V56.1458C17.5 56.7438 17.729 57.3081 18.1183 57.7135C18.5062 58.1175 19.0196 58.3333 19.5417 58.3333H30.0417C30.5637 58.3333 31.0771 58.1175 31.465 57.7135Z" fill="#F8F8F8"/>
<path d="M61.25 10.2083C61.25 9.82156 61.0963 9.45063 60.8228 9.17714C60.5494 8.90365 60.1784 8.75 59.7916 8.75C59.4049 8.75 59.0339 8.90365 58.7604 9.17714C58.487 9.45063 58.3333 9.82156 58.3333 10.2083H49.5833V13.125H58.3333V16.0417H49.5833V18.9583H58.3333V21.875H49.5833V24.7917H58.3333V27.6967L52.8544 34.0477C52.6259 34.3124 52.5001 34.6504 52.5 35V59.7917C52.5 60.1784 52.6536 60.5494 52.9271 60.8229C53.2006 61.0964 53.5715 61.25 53.9583 61.25C54.3451 61.25 54.716 61.0964 54.9895 60.8229C55.263 60.5494 55.4166 60.1784 55.4166 59.7917V35.5425L60.8956 29.1915C61.1241 28.9268 61.2498 28.5888 61.25 28.2392V10.2083Z" fill="#F8F8F8"/>
</svg>
