<svg width="35" height="35" viewBox="0 0 35 35" fill="none" xmlns="http://www.w3.org/2000/svg">
<path d="M18.3125 3C9.85645 3 3 9.85645 3 18.3125C3 26.7686 9.85645 33.625 18.3125 33.625C26.7686 33.625 33.625 26.7686 33.625 18.3125C33.625 9.85645 26.7686 3 18.3125 3ZM18.3125 31.0273C11.292 31.0273 5.59766 25.333 5.59766 18.3125C5.59766 11.292 11.292 5.59766 18.3125 5.59766C25.333 5.59766 31.0273 11.292 31.0273 18.3125C31.0273 25.333 25.333 31.0273 18.3125 31.0273Z" fill="white"/>
<path d="M26.75 16.7143C27.0951 16.7143 27.3896 16.8398 27.6338 17.091C27.8779 17.3421 28 17.6451 28 18C28 18.3549 27.8779 18.6579 27.6338 18.909C27.3896 19.1602 27.0951 19.2857 26.75 19.2857H26.6035L25.4805 25.9353C25.4284 26.2433 25.2852 26.4978 25.0508 26.6987C24.8164 26.8996 24.5495 27 24.25 27H11.75C11.4505 27 11.1836 26.8996 10.9492 26.6987C10.7148 26.4978 10.5716 26.2433 10.5195 25.9353L9.39648 19.2857H9.25C8.90495 19.2857 8.61035 19.1602 8.36621 18.909C8.12207 18.6579 8 18.3549 8 18C8 17.6451 8.12207 17.3421 8.36621 17.091C8.61035 16.8398 8.90495 16.7143 9.25 16.7143H26.75ZM12.7363 24.75C12.9056 24.7366 13.0472 24.6613 13.1611 24.524C13.2751 24.3867 13.3255 24.231 13.3125 24.0569L13 19.8783C12.987 19.7042 12.9137 19.5586 12.7803 19.4414C12.6468 19.3242 12.4954 19.2723 12.3262 19.2857C12.1569 19.2991 12.0153 19.3744 11.9014 19.5117C11.7874 19.649 11.737 19.8047 11.75 19.9788L12.0625 24.1574C12.0755 24.3248 12.1423 24.4654 12.2627 24.5792C12.3831 24.6931 12.5247 24.75 12.6875 24.75H12.7363ZM16.75 24.1071V19.9286C16.75 19.7545 16.6882 19.6038 16.5645 19.4766C16.4408 19.3493 16.2943 19.2857 16.125 19.2857C15.9557 19.2857 15.8092 19.3493 15.6855 19.4766C15.5618 19.6038 15.5 19.7545 15.5 19.9286V24.1071C15.5 24.2812 15.5618 24.4319 15.6855 24.5592C15.8092 24.6864 15.9557 24.75 16.125 24.75C16.2943 24.75 16.4408 24.6864 16.5645 24.5592C16.6882 24.4319 16.75 24.2812 16.75 24.1071ZM20.5 24.1071V19.9286C20.5 19.7545 20.4382 19.6038 20.3145 19.4766C20.1908 19.3493 20.0443 19.2857 19.875 19.2857C19.7057 19.2857 19.5592 19.3493 19.4355 19.4766C19.3118 19.6038 19.25 19.7545 19.25 19.9286V24.1071C19.25 24.2812 19.3118 24.4319 19.4355 24.5592C19.5592 24.6864 19.7057 24.75 19.875 24.75C20.0443 24.75 20.1908 24.6864 20.3145 24.5592C20.4382 24.4319 20.5 24.2812 20.5 24.1071ZM23.9375 24.1574L24.25 19.9788C24.263 19.8047 24.2126 19.649 24.0986 19.5117C23.9847 19.3744 23.8431 19.2991 23.6738 19.2857C23.5046 19.2723 23.3532 19.3242 23.2197 19.4414C23.0863 19.5586 23.013 19.7042 23 19.8783L22.6875 24.0569C22.6745 24.231 22.7249 24.3867 22.8389 24.524C22.9528 24.6613 23.0944 24.7366 23.2637 24.75H23.3125C23.4753 24.75 23.6169 24.6931 23.7373 24.5792C23.8577 24.4654 23.9245 24.3248 23.9375 24.1574ZM12.6484 11.933L11.7402 16.0714H10.4512L11.4375 11.6417C11.5612 11.0525 11.8509 10.572 12.3066 10.2003C12.7624 9.82868 13.2832 9.64286 13.8691 9.64286H15.5C15.5 9.46875 15.5618 9.31808 15.6855 9.19085C15.8092 9.06362 15.9557 9 16.125 9H19.875C20.0443 9 20.1908 9.06362 20.3145 9.19085C20.4382 9.31808 20.5 9.46875 20.5 9.64286H22.1309C22.7168 9.64286 23.2376 9.82868 23.6934 10.2003C24.1491 10.572 24.4388 11.0525 24.5625 11.6417L25.5488 16.0714H24.2598L23.3516 11.933C23.2799 11.6384 23.1318 11.3973 22.9072 11.2098C22.6826 11.0223 22.4238 10.9286 22.1309 10.9286H20.5C20.5 11.1027 20.4382 11.2533 20.3145 11.3806C20.1908 11.5078 20.0443 11.5714 19.875 11.5714H16.125C15.9557 11.5714 15.8092 11.5078 15.6855 11.3806C15.5618 11.2533 15.5 11.1027 15.5 10.9286H13.8691C13.5762 10.9286 13.3174 11.0223 13.0928 11.2098C12.8682 11.3973 12.7201 11.6384 12.6484 11.933Z" fill="white"/>
</svg>
