<svg width="35" height="35" viewBox="0 0 35 35" fill="none" xmlns="http://www.w3.org/2000/svg">
<path d="M18.3125 3C9.85645 3 3 9.85645 3 18.3125C3 26.7686 9.85645 33.625 18.3125 33.625C26.7686 33.625 33.625 26.7686 33.625 18.3125C33.625 9.85645 26.7686 3 18.3125 3ZM18.3125 31.0273C11.292 31.0273 5.59766 25.333 5.59766 18.3125C5.59766 11.292 11.292 5.59766 18.3125 5.59766C25.333 5.59766 31.0273 11.292 31.0273 18.3125C31.0273 25.333 25.333 31.0273 18.3125 31.0273Z" fill="white"/>
<g clip-path="url(#clip0_39_260)">
<path d="M18 27C18.5967 27 19.169 26.763 19.591 26.341C20.0129 25.919 20.25 25.3467 20.25 24.75H15.75C15.75 25.3467 15.9871 25.919 16.409 26.341C16.831 26.763 17.4033 27 18 27ZM19.1194 10.2364C19.1351 10.08 19.1178 9.92197 19.0687 9.77263C19.0196 9.62328 18.9397 9.48588 18.8343 9.3693C18.7288 9.25271 18.6001 9.15953 18.4564 9.09575C18.3127 9.03197 18.1572 8.99902 18 8.99902C17.8428 8.99902 17.6873 9.03197 17.5436 9.09575C17.3999 9.15953 17.2712 9.25271 17.1657 9.3693C17.0603 9.48588 16.9804 9.62328 16.9313 9.77263C16.8822 9.92197 16.8649 10.08 16.8806 10.2364C15.6091 10.495 14.4659 11.1852 13.6449 12.1899C12.8238 13.1947 12.3752 14.4524 12.375 15.75C12.375 16.9853 11.8125 22.5 10.125 23.625H25.875C24.1875 22.5 23.625 16.9853 23.625 15.75C23.625 13.0275 21.69 10.755 19.1194 10.2364V10.2364Z" fill="white"/>
</g>
<defs>
<clipPath id="clip0_39_260">
<rect width="18" height="18" fill="white" transform="translate(9 9)"/>
</clipPath>
</defs>
</svg>
