<svg width="35" height="35" viewBox="0 0 35 35" fill="none" xmlns="http://www.w3.org/2000/svg">
<path d="M17.5 2.1875C9.04395 2.1875 2.1875 9.04395 2.1875 17.5C2.1875 25.9561 9.04395 32.8125 17.5 32.8125C25.9561 32.8125 32.8125 25.9561 32.8125 17.5C32.8125 9.04395 25.9561 2.1875 17.5 2.1875ZM17.5 30.2148C10.4795 30.2148 4.78516 24.5205 4.78516 17.5C4.78516 10.4795 10.4795 4.78516 17.5 4.78516C24.5205 4.78516 30.2148 10.4795 30.2148 17.5C30.2148 24.5205 24.5205 30.2148 17.5 30.2148Z" fill="white"/>
<path d="M21.3145 10.8247C20.2891 9.92578 18.9355 9.43359 17.5 9.43359C16.0645 9.43359 14.7109 9.9292 13.6855 10.8247C12.6191 11.7578 12.0312 13.0122 12.0312 14.3555V14.6152C12.0312 14.7656 12.1543 14.8887 12.3047 14.8887H13.9453C14.0957 14.8887 14.2188 14.7656 14.2188 14.6152V14.3555C14.2188 12.8481 15.6919 11.6211 17.5 11.6211C19.3081 11.6211 20.7812 12.8481 20.7812 14.3555C20.7812 15.4185 20.0293 16.3926 18.8638 16.8403C18.1392 17.1172 17.5239 17.6025 17.083 18.2383C16.6353 18.8877 16.4028 19.667 16.4028 20.4565V21.1914C16.4028 21.3418 16.5259 21.4648 16.6763 21.4648H18.3169C18.4673 21.4648 18.5903 21.3418 18.5903 21.1914V20.4155C18.5921 20.0837 18.6938 19.7601 18.8822 19.487C19.0706 19.2138 19.3369 19.0038 19.6465 18.8843C21.6631 18.1084 22.9653 16.3311 22.9653 14.3555C22.9688 13.0122 22.3809 11.7578 21.3145 10.8247ZM16.1328 25.0195C16.1328 25.3821 16.2769 25.7299 16.5333 25.9863C16.7896 26.2427 17.1374 26.3867 17.5 26.3867C17.8626 26.3867 18.2104 26.2427 18.4667 25.9863C18.7231 25.7299 18.8672 25.3821 18.8672 25.0195C18.8672 24.6569 18.7231 24.3092 18.4667 24.0528C18.2104 23.7964 17.8626 23.6523 17.5 23.6523C17.1374 23.6523 16.7896 23.7964 16.5333 24.0528C16.2769 24.3092 16.1328 24.6569 16.1328 25.0195Z" fill="white"/>
</svg>
