<svg width="62" height="62" viewBox="0 0 62 62" fill="none" xmlns="http://www.w3.org/2000/svg">
<path d="M42.8625 9.06409L34.5214 9.01653C33.0142 9.01274 33.0578 11.2594 34.5087 11.2545L42.8497 11.3021L42.8432 12.4504L34.5021 12.4029C33.0034 12.3811 33.0458 14.6266 34.4894 14.6408L42.8304 14.6884L42.8237 15.862L34.4827 15.8144C32.9839 15.8059 33.0263 18.0502 34.4699 18.0524L42.811 18.0999L42.8046 19.2183L34.4635 19.1708C32.9959 19.1732 33.0071 21.4197 34.4506 21.4351L42.7917 21.4827L42.7853 22.6035L34.4442 22.5559C32.9767 22.5427 32.9579 24.7855 34.4315 24.7939L42.7725 24.8414L42.7661 25.9598L34.4251 25.9123C32.9575 25.9087 32.9387 28.1538 34.4123 28.1514L42.7534 28.199L42.7468 29.345L34.4058 29.2974C32.9383 29.2758 32.9195 31.5186 34.393 31.5354L42.7341 31.5829L42.7277 32.6989L34.3867 32.6513C32.9191 32.6418 32.9303 34.8895 34.3739 34.8905L42.715 34.9381L42.5907 56.7285C42.5766 60.0489 47.6204 60.0176 47.6534 56.7574L47.9442 5.76422C47.9384 4.24736 46.7038 2.32269 44.6543 2.305L34.56 2.24744C33.0528 2.24005 33.0964 4.48673 34.5473 4.4854L42.8882 4.56057L42.8818 5.67655L34.5407 5.62899C33.036 5.6132 33.0796 7.85869 34.528 7.86815L42.869 7.91571L42.8625 9.06409ZM33.7275 47.6454C33.7448 43.7695 29.7511 39.5778 24.9358 42.2504L25.0203 27.4259L22.0554 2.95855C21.9943 2.31139 21.4467 2.15586 21.0784 2.14296C20.6979 2.15159 19.9351 2.29965 19.8486 2.94596L16.6204 27.378L16.5359 42.2025C11.7514 39.4752 7.83952 43.6481 7.81654 47.4677C7.79836 50.866 10.3984 53.6721 13.9384 53.6839C17.5047 53.7126 20.0881 50.5989 20.1055 47.5378L20.1934 32.1384L21.3933 32.1452L21.3055 47.5446C21.286 50.9717 23.9259 53.5236 26.8745 53.7013C26.8146 55.5801 27.4125 58.2644 28.5608 59.3342C29.9073 60.5899 31.528 59.0031 30.8742 57.6997C30.2427 56.4865 29.6204 55.7665 30.1442 53.1283C32.2762 52.1564 33.7088 50.0934 33.7275 47.6454ZM14.0929 50.5827C13.2837 50.5781 12.5095 50.2522 11.9406 49.6768C11.3717 49.1014 11.0547 48.3235 11.0593 47.5144C11.0639 46.7052 11.3898 45.931 11.9652 45.3621C12.5407 44.7932 13.3185 44.4762 14.1277 44.4808C15.7908 44.4999 17.1378 45.872 17.1402 47.5508C17.1322 48.3551 16.8081 49.124 16.2379 49.6913C15.6677 50.2586 14.8972 50.5788 14.0929 50.5827ZM24.3953 47.5922C24.4027 46.7872 24.7267 46.0174 25.2971 45.4494C25.8676 44.8813 26.6388 44.5607 27.4439 44.5567C28.2491 44.5686 29.0172 44.8977 29.5812 45.4725C30.1453 46.0473 30.4598 46.8214 30.4564 47.6268C30.4506 48.4318 30.1272 49.2019 29.5565 49.7696C28.9858 50.3374 28.2141 50.6569 27.4091 50.6586C26.6043 50.6468 25.8367 50.3183 25.2725 49.7443C24.7084 49.1703 24.3932 48.397 24.3953 47.5922Z" fill="#F8F8F8"/>
</svg>
