<svg width="54" height="54" viewBox="0 0 54 54" fill="none" xmlns="http://www.w3.org/2000/svg">
<path d="M33.75 9C38.5239 9 43.1023 10.8964 46.4779 14.2721C49.8536 17.6477 51.75 22.2261 51.75 27C51.75 31.7739 49.8536 36.3523 46.4779 39.7279C43.1023 43.1036 38.5239 45 33.75 45C28.9761 45 24.3977 43.1036 21.0221 39.7279C17.6464 36.3523 15.75 31.7739 15.75 27C15.75 22.2261 17.6464 17.6477 21.0221 14.2721C24.3977 10.8964 28.9761 9 33.75 9ZM33.75 13.5C30.1696 13.5 26.7358 14.9223 24.2041 17.4541C21.6723 19.9858 20.25 23.4196 20.25 27C20.25 30.5804 21.6723 34.0142 24.2041 36.5459C26.7358 39.0777 30.1696 40.5 33.75 40.5C37.3304 40.5 40.7642 39.0777 43.2959 36.5459C45.8277 34.0142 47.25 30.5804 47.25 27C47.25 23.4196 45.8277 19.9858 43.2959 17.4541C40.7642 14.9223 37.3304 13.5 33.75 13.5ZM31.5 18H34.875V26.505L40.1175 31.7475L37.7325 34.1325L31.5 27.9V18ZM4.5 40.5C3.90326 40.5 3.33097 40.2629 2.90901 39.841C2.48705 39.419 2.25 38.8467 2.25 38.25C2.25 37.6533 2.48705 37.081 2.90901 36.659C3.33097 36.2371 3.90326 36 4.5 36H13.1175C13.815 37.5975 14.715 39.105 15.75 40.5H4.5ZM6.75 29.25C6.15326 29.25 5.58097 29.0129 5.15901 28.591C4.73705 28.169 4.5 27.5967 4.5 27C4.5 26.4033 4.73705 25.831 5.15901 25.409C5.58097 24.9871 6.15326 24.75 6.75 24.75H11.3625L11.25 27L11.3625 29.25H6.75ZM9 18C8.40326 18 7.83097 17.7629 7.40901 17.341C6.98705 16.919 6.75 16.3467 6.75 15.75C6.75 15.1533 6.98705 14.581 7.40901 14.159C7.83097 13.7371 8.40326 13.5 9 13.5H15.75C14.715 14.895 13.815 16.4025 13.1175 18H9Z" fill="#000033"/>
</svg>
