<svg width="53" height="52" viewBox="0 0 53 52" fill="none" xmlns="http://www.w3.org/2000/svg">
<path d="M22.2599 47.274L34.8243 35.699L17.0233 16.9002L4.70081 28.2343L4.70212 28.2357C3.45169 29.3853 2.44038 30.7704 1.72615 32.3116C1.01192 33.8528 0.608803 35.5197 0.539884 37.2169C0.241758 44.362 5.79395 50.3977 12.939 50.6958C14.6416 50.7689 16.3418 50.5042 17.9416 49.9169C19.5413 49.3296 21.009 48.4314 22.2599 47.274Z" fill="white"/>
<path d="M48.6725 22.9362C50.9731 20.6478 52.3257 17.5757 52.4601 14.3336C52.6033 10.9019 51.3774 7.55398 49.0521 5.02621C46.7268 2.49843 43.4926 0.9979 40.061 0.854716C36.6846 0.713837 33.5643 1.89071 31.1728 3.91388L31.1545 3.89402L18.9455 15.125L36.7465 33.9238L48.6725 22.9362Z" fill="white"/>
</svg>
