<svg width="25" height="24" viewBox="0 0 25 24" fill="none" xmlns="http://www.w3.org/2000/svg">
<path d="M10.4999 21.4631L16.4265 16.2079L8.02977 7.67295L2.21729 12.8188L2.2179 12.8194C1.62808 13.3414 1.15105 13.9702 0.814146 14.6699C0.477245 15.3697 0.287093 16.1265 0.254584 16.897C0.113959 20.141 2.73292 22.8813 6.10322 23.0166C6.90633 23.0498 7.70832 22.9296 8.46293 22.663C9.21754 22.3964 9.90983 21.9886 10.4999 21.4631Z" fill="white"/>
<path d="M22.9587 10.4134C24.0439 9.37443 24.682 7.97965 24.7453 6.50767C24.8129 4.94966 24.2346 3.42964 23.1378 2.28199C22.041 1.13434 20.5154 0.453074 18.8967 0.388067C17.3041 0.324105 15.8322 0.858423 14.7041 1.77697L14.6955 1.76796L8.93654 6.86699L17.3333 15.4019L22.9587 10.4134Z" fill="white"/>
</svg>
