<svg width="47" height="68" viewBox="0 0 47 68" fill="none" xmlns="http://www.w3.org/2000/svg">
<g clip-path="url(#clip0_80_63)">
<path d="M10.079 14.0517C6.65929 12.9427 5.98353 12.0281 5.98353 8.70539C5.98353 7.16343 5.93438 5.61338 6.00401 4.07142C6.11868 1.50958 7.5603 0.0242805 10.0995 0.0242805C18.954 -0.0161908 27.8071 -0.0161908 36.6589 0.0242805C37.7524 0.0265648 38.8028 0.446425 39.5905 1.19612C40.3781 1.9458 40.8421 2.96731 40.8854 4.04714C40.9591 5.66599 40.9141 7.28484 40.8854 8.9037C40.8854 12.0119 40.0663 13.0682 36.9046 13.9707V17.3622C41.7209 18.544 45.1365 21.2515 46.4102 26.0838C46.7783 27.5834 46.9571 29.1222 46.9427 30.6652C46.9918 38.924 46.9918 47.1856 46.9427 55.4498C46.9427 63.1637 41.9953 67.9959 34.1278 67.9959C26.9662 68.0175 19.8018 68.0175 12.6346 67.9959C4.93918 67.9514 0.0204775 63.0949 0 55.4984C0 46.8294 0 38.1659 0 29.5077C0 23.6353 2.98562 19.5234 8.68247 17.771C11.0579 17.0384 9.64901 15.3791 10.079 14.0517ZM2.11328 55.3325H44.7065V30.2402H2.11328V55.3325ZM11.4961 2.14903C8.56779 1.85359 8.00261 2.31901 7.97395 4.84847C7.97395 6.32567 7.97395 7.79883 7.97395 9.27604C7.97395 10.8423 8.75209 11.6638 10.3411 11.6638C18.9963 11.6638 27.6528 11.6638 36.3107 11.6638C37.9203 11.6638 38.6452 10.818 38.6083 9.23557C38.5715 7.65313 38.6083 6.1476 38.6083 4.60564C38.5755 2.17736 37.7073 1.60266 35.1845 2.33115C35.1845 2.90584 35.3319 3.54529 35.1476 4.0957C34.9633 4.64611 34.435 5.16415 34.0582 5.69027C33.7347 5.18843 33.276 4.72301 33.1203 4.17664C32.9967 3.4277 32.9459 2.66876 32.9688 1.91025H29.8112C29.8815 2.75134 29.8678 3.59723 29.7702 4.43566C29.6514 4.90918 29.1149 5.28151 28.7668 5.69837C28.4187 5.29365 27.8699 4.91727 27.7675 4.45185C27.6687 3.74369 27.6536 3.02657 27.7225 2.31496H24.4461C24.5237 2.98176 24.5071 3.65599 24.3969 4.31829C24.27 4.85656 23.7048 5.26128 23.3444 5.70646C23.0044 5.26128 22.5253 4.85656 22.3942 4.37091C22.2737 3.56047 22.2243 2.74124 22.2468 1.92239H18.8967C18.9667 2.68913 18.9544 3.46105 18.8598 4.22521C18.7083 4.76753 18.225 5.22081 17.8892 5.71456C17.5329 5.24509 17.0045 4.82014 16.8653 4.29806C16.7655 3.5099 16.7518 2.71344 16.8243 1.92239H13.5479C13.6077 2.8408 13.5927 3.76247 13.5029 4.67849C13.421 5.0832 12.8517 5.37055 12.5077 5.71051C12.1759 5.35841 11.6353 5.04678 11.5534 4.64611C11.4571 3.81724 11.4379 2.98137 11.4961 2.14903Z" fill="white"/>
<path d="M25.3143 33.4617C28.6767 33.6277 30.6385 34.7932 31.7115 37.1406C32.7845 39.4879 32.4855 41.7826 30.6712 43.6605C27.9573 46.4773 25.1682 49.2253 22.3041 51.9045C21.1859 52.9658 19.6956 53.5585 18.1451 53.5585C16.5947 53.5585 15.1044 52.9658 13.9861 51.9045C11.5903 49.715 11.1193 45.9229 13.3063 43.5391C16.0789 40.4916 19.0564 37.6384 22.1157 34.8782C23.0986 33.996 24.6426 33.745 25.3143 33.4617ZM18.4298 41.2808C17.3526 42.3978 16.2387 43.4784 15.2025 44.6278C13.6216 46.3883 13.6872 48.5778 15.3131 50.229C16.0128 50.9818 16.9832 51.4336 18.0161 51.4873C19.0491 51.541 20.0621 51.1924 20.8379 50.5164C22.1198 49.452 23.2543 48.2216 24.4543 47.0601L18.4298 41.2808ZM26.0925 45.4615C27.7511 43.3934 30.7449 42.2683 30.0692 38.9173C29.9427 38.1062 29.5562 37.3566 28.9664 36.7789C28.3766 36.2011 27.6147 35.8257 26.7928 35.7079C23.4631 35.1089 22.2754 38.0431 20.3833 39.492L26.0925 45.4615Z" fill="white"/>
</g>
<defs>
<clipPath id="clip0_80_63">
<rect width="47" height="68" fill="white"/>
</clipPath>
</defs>
</svg>
